<svg width="24" height="22" viewBox="0 0 24 22" fill="none" xmlns="http://www.w3.org/2000/svg">
<path d="M1.5 2.75C1.5 1.53125 2.48438 0.5 3.75 0.5H20.25C21.4688 0.5 22.5 1.53125 22.5 2.75V8.65625C21.7969 8.32812 21.0469 8.09375 20.25 8.04688V8V6.5C20.25 5.70312 19.5469 5 18.75 5H14.25C13.4062 5 12.75 5.70312 12.75 6.5V8H11.25V6.5C11.25 5.70312 10.5469 5 9.75 5H5.25C4.40625 5 3.75 5.70312 3.75 6.5V8V8.04688C2.90625 8.09375 2.15625 8.32812 1.5 8.65625V2.75ZM4.125 9.5H19.875C22.125 9.5 24 11.375 24 13.625V17.375V20.375C24 21.0312 23.4844 21.5 22.875 21.5C22.2188 21.5 21.75 21.0312 21.75 20.375V18.5H2.25V20.375C2.25 21.0312 1.73438 21.5 1.125 21.5C0.46875 21.5 0 21.0312 0 20.375V17.375V13.625C0 11.375 1.82812 9.5 4.125 9.5ZM21.75 16.25V13.625C21.75 12.5938 20.9062 11.75 19.875 11.75H4.125C3.04688 11.75 2.25 12.5938 2.25 13.625V16.25H21.75Z" fill="white"/>
</svg>
