<svg width="17" height="13" viewBox="0 0 17 13" fill="none" xmlns="http://www.w3.org/2000/svg">
<path d="M15.7812 5.53125L12 9.5625C11.7188 9.84375 11.3438 10 10.9375 10C10.125 10 9.5 9.375 9.5 8.5625V7.25H4.75C4.59375 7.25 4.5 7.375 4.5 7.5V11.25C4.5 12.2188 3.6875 13 2.75 13H1.75C0.78125 13 0 12.2188 0 11.25V7.75C0 5 2.21875 2.75 5 2.75H9.5V1.46875C9.5 0.65625 10.125 0 10.9375 0C11.3438 0 11.7188 0.1875 12 0.46875L15.7812 4.5C16.0625 4.78125 16.0625 5.25 15.7812 5.53125ZM11 8.4375L14.2188 5L11 1.59375V3.5C11 3.9375 10.6562 4.25 10.25 4.25H5C3.0625 4.25 1.5 5.84375 1.5 7.75V11.25C1.5 11.4062 1.59375 11.5 1.75 11.5H2.75C2.875 11.5 3 11.4062 3 11.25V7.5C3 6.5625 3.78125 5.75 4.75 5.75H10.25C10.6562 5.75 11 6.09375 11 6.5V8.4375Z" fill="white"/>
</svg>
