<svg width="24" height="24" viewBox="0 0 24 24" fill="none" xmlns="http://www.w3.org/2000/svg">
<path d="M12.7969 0.421875L15.1406 3L17.6719 0.984375C18 0.75 18.4688 0.703125 18.8438 0.890625C19.2188 1.07812 19.5 1.45312 19.5 1.875V7.125C19.5 10.6875 16.6406 13.5 13.125 13.5V17.5312C15.0469 15.0938 18 13.5 21.375 13.5H22.6875C23.3906 13.5 24 14.1094 24 14.8125C24 19.9219 19.875 24 14.8125 24H13.125H10.875H9.1875C4.07812 24 0 19.9219 0 14.8125C0 14.1094 0.5625 13.5 1.3125 13.5H2.625C5.95312 13.5 8.95312 15.0938 10.875 17.5312V13.5C7.3125 13.5 4.5 10.6875 4.5 7.125V1.875C4.5 1.45312 4.73438 1.07812 5.10938 0.890625C5.48438 0.703125 5.95312 0.75 6.28125 1.03125L8.85938 3L11.1562 0.421875C11.3438 0.140625 11.6719 0 12 0C12.2812 0 12.6094 0.140625 12.7969 0.421875ZM13.125 11.25C15.375 11.25 17.25 9.42188 17.25 7.125V4.21875L15.6562 5.39062C15.1875 5.76562 14.5312 5.71875 14.1562 5.25L12 2.85938L9.84375 5.25C9.42188 5.71875 8.76562 5.76562 8.29688 5.39062L6.75 4.21875V7.125C6.75 9.42188 8.57812 11.25 10.875 11.25H13.125ZM9.1875 21.75H10.5469C9.5625 18.3281 6.375 15.75 2.625 15.75H2.29688C2.76562 19.1719 5.67188 21.75 9.1875 21.75ZM14.8125 21.75C18.3281 21.75 21.1875 19.1719 21.6562 15.75H21.375C17.5781 15.75 14.3906 18.3281 13.4062 21.75H14.8125Z" fill="white"/>
</svg>
