<svg width="24" height="24" viewBox="0 0 24 24" fill="none" xmlns="http://www.w3.org/2000/svg">
<path d="M9 13.5V12.75V10.5H6C5.57812 10.5 5.25 10.1719 5.25 9.75C5.25 9.375 5.57812 9 6 9H9V6H6C5.57812 6 5.25 5.67188 5.25 5.25C5.25 4.875 5.57812 4.5 6 4.5H9V3C9 2.625 8.625 2.25 8.25 2.25H3C2.57812 2.25 2.25 2.625 2.25 3V15.75V21C2.25 21.0469 2.25 21.0938 2.25 21.0938C2.25 21.4688 2.57812 21.75 3 21.75H8.25H21C21.375 21.75 21.75 21.4219 21.75 21V15.75C21.75 15.375 21.375 15 21 15H19.5V18C19.5 18.4219 19.125 18.75 18.75 18.75C18.3281 18.75 18 18.4219 18 18V15H15V18C15 18.4219 14.625 18.75 14.25 18.75C13.8281 18.75 13.5 18.4219 13.5 18V15H11.25H10.5V18C10.5 18.4219 10.125 18.75 9.75 18.75C9.32812 18.75 9 18.4219 9 18V15H6C5.57812 15 5.25 14.6719 5.25 14.25C5.25 13.875 5.57812 13.5 6 13.5H9ZM13.5 12.75H21C22.6406 12.75 24 14.1094 24 15.75V21C24 22.6875 22.6406 24 21 24H8.25H3C1.40625 24 0.140625 22.8281 0 21.3281C0 21.2344 0 21.1406 0 21V15.75V3C0 1.35938 1.3125 0 3 0H8.25C9.89062 0 11.25 1.35938 11.25 3V10.5V12.75H13.5Z" fill="white"/>
</svg>
