<?xml version="1.0" encoding="utf-8"?>
<!-- Generator: Adobe Illustrator 23.0.3, SVG Export Plug-In . SVG Version: 6.00 Build 0)  -->
<svg version="1.1" id="Layer_1" focusable="false" xmlns="http://www.w3.org/2000/svg" xmlns:xlink="http://www.w3.org/1999/xlink"
	 x="0px" y="0px" viewBox="0 0 512 512" style="enable-background:new 0 0 512 512;" xml:space="preserve">
<style type="text/css">
	.st0{fill:#FFFFFF;}
</style>
<path class="st0" d="M200,288H88c-21.4,0-32.1,25.8-17,41l32.9,31L4.7,459.3c-6.2,6.2-6.2,16.4,0,22.6l25.4,25.4
	c6.2,6.2,16.4,6.2,22.6,0L152,408l31.1,33c15.1,15.1,40.9,4.4,40.9-17V312C224,298.7,213.3,288,200,288z M312,224h112
	c21.4,0,32.1-25.9,17-41l-33-31l99.3-99.3c6.2-6.2,6.2-16.4,0-22.6L481.9,4.7c-6.2-6.2-16.4-6.2-22.6,0L360,104l-31.1-33
	C313.8,55.9,288,66.6,288,88v112C288,213.3,298.7,224,312,224z M408,360l33-31.1c15.1-15.1,4.4-40.9-17-40.9H312
	c-13.3,0-24,10.7-24,24v112c0,21.4,25.9,32.1,41,17l31-32.9l99.3,99.3c6.2,6.2,16.4,6.2,22.6,0l25.4-25.4c6.2-6.2,6.2-16.4,0-22.6
	L408,360z M183,71.1L152,104L52.7,4.7c-6.2-6.2-16.4-6.2-22.6,0L4.7,30.1c-6.2,6.2-6.2,16.4,0,22.6L104,152l-33,31.1
	C55.9,198.2,66.6,224,88,224h112c13.3,0,24-10.7,24-24V88C224,66.7,198.1,56,183,71.1z"/>
</svg>
