<svg id="Layer_1" data-name="Layer 1" xmlns="http://www.w3.org/2000/svg" viewBox="0 0 904.7 730.39"><path d="M8.89,682c3-6.87,5-14.09,7.23-21.21a1143.36,1143.36,0,0,0,34-133.65C55,500.81,59,474.32,61.62,447.65c2.46-24.61,4-49.27,4.67-74,.55-19,.82-38,.33-57-1-38.08-5.7-75.67-16.72-112.29a78.71,78.71,0,0,0-3.39-9.49c-1.19-2.7-.51-4.63,1.33-6.71A176.77,176.77,0,0,0,70.37,156C80.5,137.54,87,117.9,89,96.84c2-21.82-.18-43.1-8.2-63.62-.63-1.62-.82-2.79,1.14-3.66q19.49-8.64,38.91-17.41a5.25,5.25,0,0,1,4.93.2c19.22,9.58,39.69,14.29,61,15.87,24.6,1.83,48.73-.43,72.31-7.92a124.83,124.83,0,0,0,19-7.71,5.83,5.83,0,0,1,5.54-.38q19.26,8.73,38.59,17.34c2.17,1,1.72,2.26,1.07,3.94a134.05,134.05,0,0,0-8.78,51c.36,26.05,7.4,50.29,20.1,72.94A182.38,182.38,0,0,0,356.89,189a4.68,4.68,0,0,1,1,5.31c-9.66,25.91-14.19,52.94-17.44,80.24-3.12,26.24-3.55,52.58-3.07,78.95.44,24.39,1.19,48.78,3.18,73.11A992.59,992.59,0,0,0,364.3,575.15q12.54,52.77,29.84,104.15c1,3.09.44,4.39-2.57,5.52a298.83,298.83,0,0,1-65,16.94A196.84,196.84,0,0,1,284.72,703c-10.1-.78-20.11.71-30.1,2.17-18.31,2.67-36.6,5.75-55.2,5.52-8.56-.11-17-1.3-25.57-2.15-17.21-1.71-34.13-6.17-51.58-5.61-4.23.14-8.44.53-12.66.63C79.15,704.34,50,697.85,21.39,688c-4.2-1.45-8.33-3.1-12.5-4.66ZM309.18,529.62c-4.67,5.2-9.53,9.94-12.7,16.08a21.15,21.15,0,0,0-2.09,12.64c.29,2.36.66,4.72,1,7.08.6,4.39-.67,6.21-4.95,7.29-5.2,1.3-10.38.55-15.51-.3-21.75-3.6-42.57-10.49-62.66-19.32-11.77-5.18-23-5.19-34.65-.65-7.69,3-15.09,6.64-22.6,10-12.47,5.64-25.31,9.76-39.19,9.54-9.19-.14-10-.79-8.24-9.71,2.67-13.41-4.13-22.49-12.87-30.88-2.18,3.86,0,6.47,2.41,9,5,5.14,7.28,11.16,6.44,18.36-.43,3.65-.61,7.34-.87,11-.24,3.25,1.26,5.31,4.49,5.64,4.3.43,8.59,1.06,13,.8,13.55-.79,26.11-5,38.31-10.64,8.46-3.92,16.78-8.18,25.79-10.81a34.57,34.57,0,0,1,24.4,1.52,312.63,312.63,0,0,0,55.51,18.43c8.54,1.94,17.17,3.77,26.06,2.32,7.39-1.2,10.7-5.23,9.12-12.44-2.27-10.36.11-19.08,7.78-26.38.31-.29.54-.68.87-1C310.34,535.15,310.5,532.69,309.18,529.62Zm2,59.81c1.51,0,3,0,4.55,0a1.19,1.19,0,0,0,1.27-.81,1.5,1.5,0,0,0-.63-1.72,6.79,6.79,0,0,0-2.48-.6c-10.7-.73-21.42-1-32.08-2.39-18.07-2.26-36.12-4.66-53.49-10.48a32.75,32.75,0,0,0-23.79,1c-8.34,3.49-15.22,9.14-22.15,14.71-7.94,6.39-15.73,13-24.85,17.72-9.66,5-15.2,4.16-22.72-3.54-2.5-2.56-4.79-5.32-7.31-7.86-5.09-5.13-10.91-8.86-18.41-9.35s-14.47,2.26-21.47,4.52a1.6,1.6,0,0,0-.93,2.16c.32,1,1.26.82,1.94.63,3.65-1,7.24-2.2,10.91-3.1,8-2,15.42-1.1,22,4.31,4.78,4,8.58,8.88,13.09,13.11,6.28,5.88,13.83,6.91,21.56,3.3,10.92-5.1,20-12.84,29.28-20.22,6.68-5.29,13.29-10.76,21.43-13.8,6.37-2.37,12.89-2.9,19.38-.77A194.18,194.18,0,0,0,259,584c8.42,1.21,16.89,2.26,25.34,3.32C293.25,588.46,302.31,587.52,311.15,589.43Zm-204-535.78c-1.51.14-3,.21-4.51.47-1,.17-1.86.68-1.57,2s1,1.29,2.18,1.05A18.63,18.63,0,0,1,115.59,59c9.61,4.75,15.71,17.33,8.1,29.2-3.06,4.79-13.47,10.25-19.11,8.44-1-.31-2-.65-2.35.75a1.88,1.88,0,0,0,1.41,2.5,11.91,11.91,0,0,0,4.19.43,23.32,23.32,0,0,0-.64-46.63ZM144.45,83.6c-.28.88-.45,1.37-.58,1.88Q137.6,108.72,114.13,114a38.24,38.24,0,0,1-12.94.26c-1-.12-2-.25-2.23,1.14-.2,1.23.47,1.79,1.59,2,.74.14,1.48.36,2.23.46,18.65,2.37,37.82-10.08,43.46-28.14A5,5,0,0,0,144.45,83.6ZM123.8,42.9c-.5-2.18-.81-3.87-2.57-4.51a41.85,41.85,0,0,0-22.37-1.61c-1,.19-1.93.65-1.71,1.92s1.19,1.54,2.44,1.28a36.62,36.62,0,0,1,14.19-.2A60.44,60.44,0,0,1,123.8,42.9Zm34.88,300.63c-2.18.23-3.59,1.54-3.46,3.78a3.53,3.53,0,0,0,3.9,3.53,3.31,3.31,0,0,0,3.33-3.66C162.41,344.82,161.15,343.63,158.68,343.53Zm19.77,55.11c2.16-.28,3.53-1.43,3.43-3.8a3.39,3.39,0,0,0-3.59-3.43,3.43,3.43,0,0,0-3.7,3.65C174.64,397.29,176,398.58,178.45,398.64Zm-51.63,15.49c.06,2.26,1,3.79,3.41,3.92,2.21.12,3.46-1.13,3.61-3.3a3.34,3.34,0,0,0-3.35-3.94C128.38,410.69,127.12,412,126.82,414.13ZM172.88,535c0-2.22-1.29-3.58-3.36-3.65a3.53,3.53,0,0,0-.21,7.06C171.41,538.46,172.69,537.15,172.88,535ZM206,497.82c-.19-2.28-1.47-3.56-3.55-3.55s-3.38,1.38-3.31,3.59,1.27,3.54,3.46,3.44A3.3,3.3,0,0,0,206,497.82Zm-44-33.14c.15,2,1.16,3.43,3.34,3.49a3.16,3.16,0,0,0,3.51-3.35,3,3,0,0,0-3.31-3.48C163.39,461.31,162.13,462.34,162,464.68ZM135.76,502c0-2.34-1.13-3.53-3.35-3.57s-3.46,1.11-3.5,3.3a3.16,3.16,0,0,0,3.32,3.54C134.4,505.33,135.5,504,135.76,502Zm33.29-107.4c2-.17,3.42-1.19,3.49-3.18a3.1,3.1,0,0,0-3.1-3.45,3,3,0,0,0-3.38,3.11C165.94,393.12,167.18,394.2,169.05,394.6Zm-45.76-24.2c-.21-2-1.23-3.24-3.25-3.32a3.28,3.28,0,0,0-.18,6.56C121.87,373.7,122.92,372.34,123.29,370.4Zm31.57-17.66c-1.72.45-3.1,1.45-3.06,3.48a3,3,0,0,0,3.32,3.19,3.07,3.07,0,0,0,3.21-3.33C158.32,354.08,157,353,154.86,352.74Zm-20.68,56.12c1.94-.3,3.31-1.35,3.29-3.34a3,3,0,0,0-3.24-3.29,3,3,0,0,0-3.29,3.21C130.94,407.46,132.26,408.51,134.18,408.86Z"/><path d="M800.61,713.34c-7.52-1.23-15.46-.48-23.37-1.06-7.43-.55-14.88,1-22.27,2.05-19.52,2.77-39,6.24-58.81,5.56a313.94,313.94,0,0,1-34.88-3.59c-11.15-1.63-22.32-3.28-33.54-4.06-6.09-.42-12.34.3-18.5.6a178.07,178.07,0,0,1-35.59-2.18,297.91,297.91,0,0,1-61.81-16.54c-3.15-1.2-3.48-2.57-2.49-5.54,15.91-47.93,29.22-96.56,38.84-146.16,5.61-29,10-58.12,12.88-87.51,2.66-27.21,4.16-54.47,4.69-81.81.26-13.56.54-27.13.29-40.68-.68-38-4.91-75.51-15-112.25a137.44,137.44,0,0,0-5.23-15.4c-1.24-3.07-.64-5.17,1.46-7.58a174.7,174.7,0,0,0,31.26-51.11,146.87,146.87,0,0,0,10.25-60.2c-.61-14.48-3-28.7-8.48-42.23-1.14-2.84-.67-4.21,2.18-5.44,8.16-3.54,16.07-7.67,24.33-10.94a28,28,0,0,0,12.86-10.42c4.12-5.76,4.25-5.58,10.83-3.26a199.54,199.54,0,0,0,50.79,10.73c26.28,2.11,52.21.34,77.7-6.62a125,125,0,0,0,16.35-5.47c2.14-.91,3.73-.77,5,1.32,4.59,7.79,11.35,12.68,19.82,15.8,6.9,2.54,13.44,6.07,20.2,9,2.32,1,3,2,2,4.64-10.59,28.12-11.37,56.78-4,85.72,6.61,26.2,19.88,48.9,37.41,69.23a5.3,5.3,0,0,1,1.12,6.11c-9.37,25.3-13.78,51.68-17.11,78.33-4,31.76-3.61,63.66-3,95.54a971.24,971.24,0,0,0,27.21,209c8.29,34.3,18.08,68.15,29.15,101.65,1.36,4.1,1.34,4-2.62,5.6A296,296,0,0,1,821.7,711.8C814.85,712.74,807.88,712.84,800.61,713.34Zm7.88-172.91c-2.62,3.13-4.93,6-7.34,8.76-4.18,4.81-6.34,10.27-5.62,16.74.31,2.9.51,5.82.75,8.74.44,5.51-.17,6.18-5.68,6.49a79.05,79.05,0,0,1-30.66-4.71c-11.19-3.88-21.56-9.68-32.52-14.09-12.22-4.91-24-5.49-36.5.15a279.65,279.65,0,0,1-53.7,17.61c-7.1,1.61-14.26,2.86-21.59,2.35-6.42-.44-8.27-2.74-7.36-8.93,2.1-14.3-3.33-27.21-14.32-34.16-1.34,3.07-.54,5.49,1.95,7.75a39.74,39.74,0,0,1,6,7.66,17.82,17.82,0,0,1,2.89,12.4c-.28,2.36-.58,4.73-.94,7.08-1,6.46,1.67,10.39,8.13,11.83,5.94,1.33,11.88.72,17.77-.29,22.24-3.84,43.47-11.08,64.14-19.93a36.71,36.71,0,0,1,25.66-1.72c8.79,2.57,16.88,6.81,25.15,10.62,14.22,6.55,28.84,11.29,44.8,10.67,10.71-.42,12.5-2.24,10.77-12.69-1.54-9.23-.23-17.5,6.9-24.17C809.52,546.42,810.09,543.93,808.49,540.43ZM816.83,602c.14-1.41-.75-2-1.86-2.33-4.05-1.2-8-2.76-12.16-3.57-9.74-1.9-18.31.12-25.38,7.32-3.12,3.17-6.16,6.42-9.22,9.64-6.4,6.75-12.86,7.94-21.15,3.78-6.72-3.37-12.74-7.8-18.64-12.43-7.68-6-14.95-12.56-23.39-17.57-10-5.94-20.34-7.4-31.5-3.63-16.11,5.45-32.91,7.57-49.68,9.75-11.5,1.49-23.08,2.17-34.67,2.59-1.36.05-2.86.14-2.74,1.94.1,1.58,1.61,1.07,2.6,1.13,9.45.67,18.84-.8,28.16-1.69,10.9-1,21.82-2.55,32.63-4.63,8.49-1.63,17-3.27,25.13-6.12a30.84,30.84,0,0,1,24.82,1.59c9.93,4.86,17.91,12.44,26.54,19.12,6.25,4.83,12.48,9.79,19.75,13,8.52,3.77,15.5,4.94,23.78-4,3.31-3.57,6.74-7,10.29-10.4,6.65-6.29,14.43-8.45,23.35-5.91l11.22,3.22C815.63,603.07,816.68,603.61,816.83,602ZM721.44,404.21c.14,2.45,1.41,3.89,3.66,3.83a3.48,3.48,0,0,0,3.68-3.71,3.33,3.33,0,0,0-3.5-3.5A3.48,3.48,0,0,0,721.44,404.21Zm23.12-44.06c2.39-.26,3.73-1.62,3.57-3.86a3.45,3.45,0,0,0-3.58-3.49,3.36,3.36,0,0,0-3.62,3.7C741,358.83,742.33,360,744.56,360.15Zm32,63.46c-.11-2.31-1.42-3.51-3.53-3.48-2.31,0-3.57,1.43-3.5,3.8s1.32,3.36,3.52,3.37C775.5,427.3,776.46,425.83,776.53,423.61Zm-35.19,50.64c0-2.14-1-3.56-3.2-3.66a3.17,3.17,0,0,0-3.63,3.22c-.14,2.18,1.07,3.44,3.24,3.58S741.19,476.48,741.34,474.25Zm-40.48,29.44c-2.05.18-3.47,1.23-3.44,3.45a3.15,3.15,0,0,0,3.53,3.38c2.26,0,3.31-1.44,3.28-3.61S703,503.77,700.86,503.69ZM734,540.79c-2.34,0-3.47,1.28-3.47,3.47a3.07,3.07,0,0,0,3.18,3.38,3.18,3.18,0,0,0,3.61-3.32C737.45,542.09,736.14,541,734,540.79Zm37.11-26.27c2.14-.18,3.43-1.31,3.33-3.53a3.17,3.17,0,0,0-3.61-3.3,3,3,0,0,0-3.18,3.35C767.65,513.26,768.88,514.4,771.13,514.52Zm-37-110.72c1.87-.19,3.21-1.09,3.2-3.19a3.25,3.25,0,1,0-6.49-.16C730.77,402.39,732,403.59,734.1,403.8Zm35.09,14.26c1.93-.21,3.24-1.22,3.24-3.25a3.12,3.12,0,0,0-3.22-3.34,3.08,3.08,0,0,0-3.32,3.22C765.86,416.68,767.21,417.74,769.19,418.06Zm14.18-35.12a3.24,3.24,0,0,0,3.32-3.3,3.27,3.27,0,0,0-6.53,0C780.12,381.67,781.45,382.68,783.37,382.94Zm-31.74-17.38c-.19-2.11-1.27-3.22-3.36-3.22-1.91,0-3.16,1-3.25,2.87a3,3,0,0,0,3.13,3.38C750.21,368.7,751.29,367.47,751.63,365.56Z"/></svg>