<svg id="Layer_1" data-name="Layer 1" xmlns="http://www.w3.org/2000/svg" viewBox="0 0 937.5 732"><defs><style>.cls-1{fill:none;stroke:#000;stroke-miterlimit:10;}</style></defs><path class="cls-1" d="M15.86,686.8c3-6.87,5-14.09,7.23-21.21a1142.81,1142.81,0,0,0,34-133.65c4.95-26.33,8.87-52.82,11.53-79.49,2.46-24.61,4-49.26,4.67-74,.55-19,.82-38,.33-56.95-1-38.08-5.7-75.67-16.72-112.29a80,80,0,0,0-3.39-9.49c-1.19-2.7-.51-4.62,1.33-6.7a176.3,176.3,0,0,0,22.52-32.21C87.47,142.34,94,122.7,95.92,101.64c2-21.82-.18-43.1-8.2-63.62-.63-1.61-.82-2.79,1.14-3.66Q108.35,25.72,127.77,17a5.28,5.28,0,0,1,4.93.21c19.22,9.57,39.69,14.28,61,15.87,24.61,1.82,48.74-.44,72.32-7.92a125.91,125.91,0,0,0,19-7.72,5.86,5.86,0,0,1,5.54-.38q19.26,8.74,38.58,17.35c2.18,1,1.73,2.25,1.08,3.93a134.05,134.05,0,0,0-8.78,51c.36,26.05,7.4,50.29,20.1,73a182.31,182.31,0,0,0,22.35,31.53,4.68,4.68,0,0,1,1,5.31C355.18,225,350.65,252,347.4,279.31c-3.12,26.23-3.55,52.58-3.07,78.94.44,24.39,1.19,48.78,3.18,73.11A992.93,992.93,0,0,0,371.27,580q12.54,52.75,29.83,104.14c1,3.09.45,4.39-2.56,5.53a299.38,299.38,0,0,1-65,16.93,196.84,196.84,0,0,1-41.81,1.28c-10.1-.78-20.11.71-30.1,2.17-18.31,2.68-36.6,5.75-55.2,5.52-8.56-.1-17-1.29-25.57-2.14-17.21-1.72-34.13-6.18-51.59-5.62-4.22.14-8.43.53-12.65.64-30.46.73-59.65-5.76-88.22-15.64-4.2-1.46-8.34-3.11-12.5-4.66Z"/><path class="cls-1" d="M807.58,718.15c-7.52-1.23-15.46-.49-23.37-1.07-7.43-.55-14.88,1-22.27,2-19.52,2.77-39,6.24-58.81,5.56a316.75,316.75,0,0,1-34.89-3.58c-11.14-1.63-22.31-3.28-33.53-4.06-6.09-.43-12.34.29-18.5.59a177.33,177.33,0,0,1-35.59-2.18,298.51,298.51,0,0,1-61.81-16.53c-3.15-1.2-3.48-2.57-2.49-5.55,15.91-47.93,29.22-96.55,38.84-146.15,5.61-29,10-58.13,12.88-87.52,2.66-27.21,4.15-54.47,4.68-81.81.27-13.56.55-27.12.3-40.68-.68-38-4.91-75.5-15-112.25a140.2,140.2,0,0,0-5.23-15.4c-1.25-3.07-.64-5.17,1.45-7.58a174.39,174.39,0,0,0,31.27-51.11,146.87,146.87,0,0,0,10.25-60.2c-.61-14.48-3-28.7-8.48-42.23-1.14-2.84-.67-4.2,2.18-5.44,8.16-3.54,16.07-7.67,24.33-10.94a28.07,28.07,0,0,0,12.86-10.41c4.12-5.77,4.25-5.59,10.83-3.27a199.45,199.45,0,0,0,50.79,10.73c26.28,2.11,52.21.34,77.7-6.62A124.93,124.93,0,0,0,782.36,17c2.14-.92,3.73-.78,5,1.31,4.59,7.79,11.35,12.68,19.82,15.8,6.9,2.54,13.44,6.07,20.2,9,2.32,1,3,2,2,4.65-10.59,28.11-11.37,56.77-4.06,85.71,6.62,26.2,19.89,48.91,37.42,69.23a5.31,5.31,0,0,1,1.12,6.11c-9.37,25.3-13.78,51.69-17.11,78.33-4,31.77-3.61,63.67-3,95.54a971.24,971.24,0,0,0,27.21,209c8.29,34.3,18.08,68.15,29.15,101.65,1.36,4.1,1.34,4-2.62,5.61a296.43,296.43,0,0,1-68.87,17.65C821.82,717.54,814.85,717.64,807.58,718.15Z"/></svg>