<svg xmlns="http://www.w3.org/2000/svg" xmlns:xlink="http://www.w3.org/1999/xlink" viewBox="0 0 2325.08 1427.2"><defs><style>.cls-1{isolation:isolate;}.cls-2{fill:#c6c6c6;mix-blend-mode:multiply;}.cls-3{fill:url(#linear-gradient);}.cls-4{fill:url(#linear-gradient-2);}.cls-5{fill:url(#linear-gradient-3);}.cls-6{fill:#ffdd94;}.cls-7{fill:#be7240;opacity:0.8;}.cls-8{fill:url(#linear-gradient-4);}.cls-9{fill:url(#linear-gradient-5);}.cls-10{fill:url(#linear-gradient-6);}.cls-11{fill:url(#linear-gradient-7);}.cls-12{fill:url(#linear-gradient-8);}.cls-13{fill:url(#linear-gradient-9);}.cls-14{fill:url(#linear-gradient-10);}.cls-15{fill:url(#linear-gradient-11);}.cls-16{fill:url(#linear-gradient-12);}.cls-17{fill:url(#linear-gradient-13);}</style><linearGradient id="linear-gradient" x1="1478.08" y1="79.9" x2="1478.08" y2="735.73" gradientUnits="userSpaceOnUse"><stop offset="0" stop-color="#e99d58"></stop><stop offset="1" stop-color="#d88a45"></stop></linearGradient><linearGradient id="linear-gradient-2" x1="1362.56" y1="360.13" x2="1228.58" y2="865.6" gradientUnits="userSpaceOnUse"><stop offset="0" stop-color="#fdb56c"></stop><stop offset="1" stop-color="#e8a059"></stop></linearGradient><linearGradient id="linear-gradient-3" x1="1184.08" y1="215.62" x2="1110.51" y2="834.79" xlink:href="#linear-gradient-2"></linearGradient><linearGradient id="linear-gradient-4" x1="1174.91" y1="651.82" x2="1549.26" y2="1058.35" gradientUnits="userSpaceOnUse"><stop offset="0" stop-color="#ffc17b"></stop><stop offset="1" stop-color="#feb468"></stop></linearGradient><linearGradient id="linear-gradient-5" x1="390.22" y1="661.09" x2="736.9" y2="1115.05" xlink:href="#linear-gradient"></linearGradient><linearGradient id="linear-gradient-6" x1="162.19" y1="1081.82" x2="-26.02" y2="520.71" gradientUnits="userSpaceOnUse"><stop offset="0" stop-color="#ffc885"></stop><stop offset="1" stop-color="#f9be71"></stop></linearGradient><linearGradient id="linear-gradient-7" x1="161.82" y1="296.88" x2="469.93" y2="296.88" xlink:href="#linear-gradient-6"></linearGradient><linearGradient id="linear-gradient-8" x1="531.16" y1="764.76" x2="1123.77" y2="1302.18" gradientUnits="userSpaceOnUse"><stop offset="0" stop-color="#ffc885"></stop><stop offset="1" stop-color="#eaa457"></stop></linearGradient><linearGradient id="linear-gradient-9" x1="1997.03" y1="833.26" x2="1997.03" y2="1312.09" xlink:href="#linear-gradient"></linearGradient><linearGradient id="linear-gradient-10" x1="469.93" y1="298.06" x2="1043.81" y2="298.06" xlink:href="#linear-gradient"></linearGradient><linearGradient id="linear-gradient-11" x1="59.33" y1="601.95" x2="90.5" y2="642.76" xlink:href="#linear-gradient"></linearGradient><linearGradient id="linear-gradient-12" x1="175.6" y1="535.57" x2="245.21" y2="626.72" xlink:href="#linear-gradient"></linearGradient><linearGradient id="linear-gradient-13" x1="281.56" y1="10.21" x2="313.7" y2="52.3" xlink:href="#linear-gradient"></linearGradient></defs><g class="cls-1"><g id="Layer_2" data-name="Layer 2"><g id="Layer_1-2" data-name="Layer 1"><polygon class="cls-2" points="216.27 1250.05 629.37 1336.4 1378.17 1427.2 1666.93 1275.09 2082.85 1232.35 2325.08 1150.1 266.69 1150.1 216.27 1250.05"></polygon><rect class="cls-3" x="1039.76" y="184.45" width="876.63" height="1050.27"></rect><rect class="cls-4" x="831.62" y="184.45" width="876.63" height="1050.27"></rect><rect class="cls-5" x="707.3" y="534.49" width="794.86" height="697.86"></rect><polygon class="cls-6" points="1502.16 534.49 1467.63 516.75 752.57 516.75 707.3 534.49 1502.16 534.49"></polygon><polygon class="cls-7" points="1108.64 516.75 1366.28 1277.44 961.16 1277.44 961.16 516.75 1108.64 516.75"></polygon><rect class="cls-8" x="1059.34" y="687.01" width="837.47" height="588.08"></rect><rect class="cls-9" x="202.17" y="602.57" width="781.19" height="647.48"></rect><polygon class="cls-10" points="202.17 602.57 0 580.09 0 1196.71 202.17 1250.05 202.17 602.57"></polygon><polygon class="cls-6" points="0 580.09 792.5 583.06 983.36 602.57 202.17 602.57 0 580.09"></polygon><polygon class="cls-11" points="161.82 587.16 469.93 593.75 469.93 8.32 161.82 0 161.82 587.16"></polygon><polygon class="cls-6" points="161.82 0 469.93 8.32 1043.81 2.38 164.5 0 161.82 0"></polygon><rect class="cls-12" x="592.76" y="926.31" width="785.41" height="500.89"></rect><polygon class="cls-6" points="592.76 926.31 1378.17 926.31 1349.23 893.74 621.57 893.74 592.76 926.31"></polygon><polygon class="cls-13" points="1896.81 1275.09 2097.25 1229.04 2097.25 667.5 1896.81 687.01 1896.81 1275.09"></polygon><polygon class="cls-6" points="2097.25 667.5 1279.22 667.5 1059.34 687.01 1896.81 687.01 2097.25 667.5"></polygon><polygon class="cls-7" points="1129.2 184.45 1314.04 516.75 1036.78 516.75 1036.78 184.45 1129.2 184.45"></polygon><polygon class="cls-14" points="469.93 8.32 1043.81 2.38 1043.81 593.75 469.93 593.75 469.93 8.32"></polygon><polygon class="cls-7" points="1378.17 926.31 1557.7 1277.44 1378.17 1277.44 1378.17 926.31"></polygon><polygon class="cls-7" points="1502.16 534.49 1557.7 667.5 1502.16 667.5 1502.16 534.49"></polygon><rect class="cls-7" x="919.06" y="926.31" width="100.35" height="77.53"></rect><rect class="cls-7" x="529.01" y="602.57" width="100.35" height="77.53"></rect><polygon class="cls-7" points="1019.41 926.31 919.06 926.31 932.52 893.74 1006.83 893.74 1019.41 926.31"></polygon><polygon class="cls-7" points="529.01 602.57 493.96 593.75 590.11 593.75 629.37 602.57 529.01 602.57"></polygon><polygon class="cls-15" points="56.01 586.32 56.01 659.22 98.01 666.08 98.01 590.99 56.01 586.32"></polygon><polygon class="cls-16" points="56.01 586.32 244.15 588.92 376.53 591.33 98.01 590.99 56.01 586.32"></polygon><polygon class="cls-17" points="332.29 68.08 266.69 62.76 266.69 2.83 332.29 4.6 332.29 68.08"></polygon><rect class="cls-7" x="1232.04" y="184.45" width="96.86" height="65.94"></rect><rect class="cls-7" x="1783.69" y="184.45" width="62.91" height="65.94"></rect></g></g></g></svg>