<?xml version="1.0" encoding="utf-8"?>
<!-- Generator: Adobe Illustrator 23.0.3, SVG Export Plug-In . SVG Version: 6.00 Build 0)  -->
<svg version="1.1" id="Layer_1" xmlns="http://www.w3.org/2000/svg" xmlns:xlink="http://www.w3.org/1999/xlink" x="0px" y="0px"
	 viewBox="0 0 553.3 153.1" style="enable-background:new 0 0 553.3 153.1;" xml:space="preserve">
<style type="text/css">
	.st0{fill:#CC0033;}
</style>
<g>
	<g id="Layer_2-2">
		<path class="st0" d="M69.1,56.4l-7.3,46.7h-4.3H43.1c-1.2-0.4-1.9-1.8-1.5-3c0.2-0.6,0.7-1.1,1.3-1.4H50c1.1-0.3,1.8-1.5,1.5-2.7
			c-0.2-0.7-0.7-1.2-1.3-1.4h-3.5c-1.1-0.3-1.8-1.5-1.4-2.7c0.2-0.7,0.8-1.2,1.4-1.4h6.8c1.2-0.5,1.7-2,1.2-3.2
			c-0.3-0.6-0.8-1.1-1.5-1.3h-9.5c-1.1-0.3-1.8-1.5-1.5-2.7c0.2-0.7,0.8-1.3,1.5-1.5h13.7c1.2-0.2,2-1.3,1.8-2.6
			c-0.2-0.9-0.9-1.7-1.8-1.8H46.7c-1.2-0.4-1.8-1.7-1.3-2.9c0.2-0.5,0.6-0.9,1-1.2h7.4c1.2-0.3,1.9-1.6,1.6-2.8
			c-0.2-0.8-0.8-1.4-1.6-1.6h-4.9c-1.1-0.3-1.8-1.5-1.5-2.6c0.2-0.7,0.8-1.3,1.5-1.5h10.4c1.2-0.2,2-1.4,1.7-2.6
			c-0.2-0.9-0.9-1.6-1.7-1.7h-5.9c-2.8-0.5-2.7-3.7,0-4.1L69.1,56.4z"/>
		<path class="st0" d="M35.5,98.9h2.7c1.1,0,2,0.9,2,1.9v0.2c0,1.1-0.9,1.9-2,1.9h-2.7c-1.1,0-2-0.9-2-1.9v-0.2
			C33.6,99.8,34.4,98.9,35.5,98.9z"/>
		<ellipse class="st0" cx="41.4" cy="75.5" rx="2.4" ry="2.1"/>
		<path class="st0" d="M99.6,103.8H84.9l9.7-36H78.3l-9.6,36H54l12.8-47.7h45.6L99.6,103.8z"/>
		<path class="st0" d="M122.1,56.1h24.5c5.3,0,9,1.3,11,3.8s2.4,6.1,1.1,10.8c-1.1,4.5-3.7,8.5-7.4,11.3c-3.6,2.7-8.4,4.1-14.3,4.1
			h-8.1l-4.8,17.7h-14.8L122.1,56.1z M131.5,76.4h3.6c2.8,0,5-0.5,6.4-1.5c1.3-0.9,2.3-2.2,2.7-3.8c0.4-1.3,0.3-2.7-0.5-3.8
			c-0.7-1-2.5-1.6-5.2-1.6h-4.2L131.5,76.4z"/>
		<path class="st0" d="M189,95.9h-16.7l-4.4,7.9h-15l30.7-47.7h16.1l5.1,47.7h-15.4L189,95.9z M188.7,85.6L188,68.5l-9.8,17.2H188.7
			z"/>
		<path class="st0" d="M218.8,56.1h44.8l-3.2,11.8h-15l-9.6,35.9h-14.8l9.6-35.9h-15L218.8,56.1z"/>
		<path class="st0" d="M300.9,103.8h-16.6l-2.5-12.3c-0.6-2.9-1.1-4.7-1.7-5.5c-0.7-0.8-1.8-1.2-2.9-1.1l-5.1,18.9h-14.7l12.8-47.7
			H285l-4.9,18.3c1.2,0,2.4-0.5,3.4-1.4c0.9-0.9,2.7-3.3,5.3-7.3c1.4-2.3,3.1-4.5,5.1-6.4c1.8-1.4,4-2.4,6.3-2.8
			c4-0.7,8.1-1,12.2-0.8l-2.7,10.1h-0.8c-2.1-0.1-4.2,0.4-6,1.4c-1.7,1.2-3.2,2.8-4.2,4.6c-1.1,1.8-2.3,3.4-3.8,4.8
			c-1.3,1.1-2.8,2-4.4,2.5c1.9,0.6,3.5,1.9,4.6,3.6c1.4,2.5,2.4,5.2,2.9,8L300.9,103.8z"/>
		<path class="st0" d="M337.6,95.9h-16.7l-4.4,7.9h-15.1l30.7-47.7h16.1l5.1,47.7h-15.4L337.6,95.9z M337.3,85.6l-0.7-17.2
			l-9.8,17.2H337.3z"/>
		<path class="st0" d="M359.4,92.8h11.7l-2.9,11h-11.7L359.4,92.8z"/>
		<path class="st0" d="M387.4,86.8h4.6c4.2,0,7.1,0.7,8.7,2.2s2,3.8,1.2,6.9c-0.6,2.5-2.2,4.6-4.4,5.9c-2.6,1.4-5.6,2.1-8.5,2h-14.7
			l7.4-27.7H405l-1.5,5.6h-14.7L387.4,86.8z M384.4,97.9h4.4c2.7,0,4.3-1,4.8-2.9c0.5-1.7-0.6-2.5-3.3-2.6h-4.4L384.4,97.9z"/>
		<path class="st0" d="M431.9,82.9h-13.4l-5.6,20.9h-8.5l7.4-27.7h21.9L431.9,82.9z"/>
		<path class="st0" d="M463.2,59.1l-12.7,46.3l0.5,1.7l-19.1,0.1c-2.8-0.8-2.5-3.9-0.2-4.5h9c2.5-0.7,2.7-3.5,0.2-4.2h-4.4
			c-2.3-0.6-2.8-3.5,0-4.2h8.5c2.2-1,2.3-3.6-0.4-4.6h-12c-2.6-0.7-2.7-3.5,0-4.3h17.2c3.1-0.8,3-3.8,0-4.5h-13.4
			c-2-0.6-2.6-3.1-0.4-4.2h9.3c2.9-0.8,2.7-3.7,0-4.5h-6.2c-2.6-0.6-2.6-3.5,0-4.2h13.1c2.8-0.5,3.1-3.8,0-4.5h-7.3
			c-3.5-0.5-3.4-3.8,0-4.3L463.2,59.1L463.2,59.1z"/>
		<path class="st0" d="M421.8,102.9h4.4c1.1,0,2,0.9,2,1.9v0.3c0,1.1-0.9,1.9-2,1.9h-4.4c-1.1,0-2-0.9-2-1.9v-0.3
			C419.8,103.8,420.7,102.9,421.8,102.9z"/>
		<path class="st0" d="M502.9,107.1h-57.3L457,62h57.8L502.9,107.1z M454.6,100.1h42.9l8.2-31.1h-43.2L454.6,100.1z"/>
		<polygon class="st0" points="455,59.1 510.9,59.1 514.7,61.9 457,62.4 		"/>
	</g>
</g>
</svg>
