<svg xmlns="http://www.w3.org/2000/svg" xmlns:xlink="http://www.w3.org/1999/xlink" viewBox="0 0 553.35 153.13"><defs><style>.cls-1{fill:url(#linear-gradient);}.cls-2{fill:#c03;}</style><linearGradient id="linear-gradient" x1="-32.33" y1="-1.31" x2="515.97" y2="136.87" gradientUnits="userSpaceOnUse"><stop offset="0" stop-color="#fcd73f"></stop><stop offset="0.21" stop-color="#fcd33a"></stop><stop offset="0.45" stop-color="#fcc82b"></stop><stop offset="0.72" stop-color="#fcb514"></stop><stop offset="0.84" stop-color="#fcaa06"></stop></linearGradient></defs><g id="Layer_2" data-name="Layer 2"><g id="Layer_2-2" data-name="Layer 2"><rect class="cls-1" width="553.35" height="153.13"></rect><path class="cls-2" d="M69.12,56.43l-7.27,46.68H57.54l-14.46,0a2.37,2.37,0,0,1-.18-4.41H50a2.16,2.16,0,0,0,.19-4.1H46.7a2.15,2.15,0,0,1,0-4.12h6.81A2.4,2.4,0,0,0,53.23,86H43.69a2.15,2.15,0,0,1,0-4.14H57.42a2.22,2.22,0,0,0,0-4.38H46.7a2.26,2.26,0,0,1-.29-4.09h7.41a2.28,2.28,0,0,0,0-4.39H48.92a2.13,2.13,0,0,1,0-4.11H59.33a2.24,2.24,0,0,0,0-4.39H53.47c-2.82-.45-2.7-3.71,0-4.11Z"></path><rect class="cls-2" x="33.56" y="98.91" width="6.64" height="4.07" rx="1.95"></rect><ellipse class="cls-2" cx="41.39" cy="75.49" rx="2.4" ry="2.09"></ellipse><path class="cls-2" d="M99.59,103.81H84.88l9.65-36H78.32l-9.64,36H54L66.75,56.1h45.62Z"></path><path class="cls-2" d="M122.14,56.1h24.5q8,0,11,3.81t1.08,10.83A20.11,20.11,0,0,1,151.33,82Q145.9,86.1,137,86.11h-8.07l-4.75,17.7H109.35Zm9.36,20.34h3.61q4.26,0,6.38-1.48a6.6,6.6,0,0,0,2.74-3.79,4.41,4.41,0,0,0-.47-3.81q-1.08-1.56-5.21-1.56h-4.2Z"></path><path class="cls-2" d="M189,95.93H172.26l-4.44,7.88h-15L183.48,56.1h16.08l5.15,47.71H189.27Zm-.29-10.31L188,68.47l-9.81,17.15Z"></path><path class="cls-2" d="M218.83,56.1h44.81l-3.16,11.78h-15l-9.63,35.93H221.08l9.62-35.93h-15Z"></path><path class="cls-2" d="M300.91,103.81H284.3l-2.45-12.32c-.58-2.91-1.15-4.74-1.71-5.46a3.38,3.38,0,0,0-2.85-1.1l-5.06,18.88h-14.7L270.31,56.1H285l-4.91,18.32a5.26,5.26,0,0,0,3.36-1.36q1.41-1.28,5.3-7.29a31,31,0,0,1,5.07-6.4,13.53,13.53,0,0,1,6.25-2.78,63.61,63.61,0,0,1,12.17-.85l-2.71,10.09h-.75a10.93,10.93,0,0,0-6,1.43,14.91,14.91,0,0,0-4.23,4.64,22.9,22.9,0,0,1-3.81,4.78,13.22,13.22,0,0,1-4.37,2.53A9,9,0,0,1,295,82.8a25.07,25.07,0,0,1,2.92,8Z"></path><path class="cls-2" d="M337.62,95.93H320.88l-4.43,7.88H301.39L332.11,56.1h16.08l5.14,47.71H337.9Zm-.3-10.31-.67-17.15-9.8,17.15Z"></path><path class="cls-2" d="M359.41,92.84H371.1l-2.93,11h-11.7Z"></path><path class="cls-2" d="M387.42,86.81H392c4.19,0,7.09.74,8.72,2.22s2,3.77,1.19,6.89a9.44,9.44,0,0,1-4.35,5.86,16.2,16.2,0,0,1-8.53,2H374.34l7.41-27.66H405l-1.5,5.6H388.78Zm-3,11.06h4.38c2.68,0,4.27-1,4.79-2.91q.69-2.55-3.33-2.55h-4.38Z"></path><path class="cls-2" d="M431.85,82.94H418.47l-5.59,20.87h-8.52l7.41-27.66h21.9Z"></path><path class="cls-2" d="M463.18,59.08l-12.7,46.29.49,1.73-19.14.11c-2.76-.77-2.5-3.87-.23-4.54h8.95c2.48-.71,2.73-3.5.23-4.24h-4.41c-2.32-.59-2.78-3.5,0-4.24h8.54c2.22-1,2.33-3.61-.35-4.55h-12c-2.57-.67-2.7-3.48,0-4.28h17.22c3.14-.76,3-3.82,0-4.51H436.37c-2-.61-2.65-3.13-.36-4.22h9.29c2.86-.82,2.73-3.73,0-4.53h-6.17c-2.6-.61-2.63-3.48,0-4.24h13.06c2.81-.54,3.12-3.78,0-4.53h-7.33c-3.54-.47-3.39-3.83,0-4.25h18.32Z"></path><rect class="cls-2" x="419.8" y="102.9" width="8.33" height="4.2" rx="1.95"></rect><path class="cls-2" d="M502.87,107.05H445.58L457,62h57.76Zm-48.3-7h42.9L505.66,69H462.43Z"></path><polygon class="cls-2" points="454.96 59.09 510.89 59.09 514.73 61.94 456.95 62.44 454.96 59.09"></polygon></g></g></svg>