<svg xmlns="http://www.w3.org/2000/svg" xmlns:xlink="http://www.w3.org/1999/xlink" viewBox="0 0 1520.6 1224.09"><defs><style>.cls-1{fill:#fdb575;}.cls-2{fill:#c47d49;}.cls-3{fill:#ffd893;}.cls-4{fill:#bf6726;}.cls-5{fill:#7f582c;}.cls-6{fill:#7f582b;}.cls-7{fill:url(#_ÂÁ_Ï_ÌÌ_È_ËÂÌÚ_69);}.cls-14,.cls-15,.cls-8{opacity:0.33;}.cls-8{fill:url(#_ÂÁ_Ï_ÌÌ_È_ËÂÌÚ_84);}.cls-9{fill:#684421;}.cls-10{fill:#c99570;}.cls-11{fill:#c48c66;}.cls-12{fill:#ba835d;}.cls-13{fill:url(#_ÂÁ_Ï_ÌÌ_È_ËÂÌÚ_69-2);}.cls-14{fill:url(#_ÂÁ_Ï_ÌÌ_È_ËÂÌÚ_84-2);}.cls-15{fill:url(#_ÂÁ_Ï_ÌÌ_È_ËÂÌÚ_3);}.cls-16{fill:#ad7550;}.cls-17{fill:#a56c4c;}.cls-18{fill:#c68b63;}.cls-19{fill:#72290c;opacity:0.09;}.cls-20{fill:#d32f56;}.cls-21{fill:#f74f80;}</style><radialGradient id="_&#xC2;&#xC1;_&#xCF;_&#xCC;&#xCC;_&#xC8;_&#xCB;&#xC2;&#xCC;&#xDA;_69" cx="680.96" cy="6726.3" r="288.77" gradientTransform="translate(0 -3229.43) scale(1 0.58)" gradientUnits="userSpaceOnUse"><stop offset="0" stop-color="#55504e"></stop><stop offset="0.17" stop-color="#797574"></stop><stop offset="0.45" stop-color="#b2b0af"></stop><stop offset="0.7" stop-color="#dcdbda"></stop><stop offset="0.89" stop-color="#f6f5f5"></stop><stop offset="1" stop-color="#fff"></stop></radialGradient><linearGradient id="_&#xC2;&#xC1;_&#xCF;_&#xCC;&#xCC;_&#xC8;_&#xCB;&#xC2;&#xCC;&#xDA;_84" x1="663.03" y1="786.75" x2="1079.33" y2="526.35" gradientUnits="userSpaceOnUse"><stop offset="0" stop-color="#8c493c"></stop><stop offset="0.19" stop-color="#ac7c73"></stop><stop offset="0.39" stop-color="#caaba5"></stop><stop offset="0.57" stop-color="#e1cfcc"></stop><stop offset="0.74" stop-color="#f1e9e8"></stop><stop offset="0.89" stop-color="#fbf9f9"></stop><stop offset="1" stop-color="#fff"></stop></linearGradient><radialGradient id="_&#xC2;&#xC1;_&#xCF;_&#xCC;&#xCC;_&#xC8;_&#xCB;&#xC2;&#xCC;&#xDA;_69-2" cx="347.36" cy="7258.03" r="379.42" xlink:href="#_&#xC2;&#xC1;_&#xCF;_&#xCC;&#xCC;_&#xC8;_&#xCB;&#xC2;&#xCC;&#xDA;_69"></radialGradient><linearGradient id="_&#xC2;&#xC1;_&#xCF;_&#xCC;&#xCC;_&#xC8;_&#xCB;&#xC2;&#xCC;&#xDA;_84-2" x1="248.63" y1="1067.71" x2="867.71" y2="680.48" xlink:href="#_&#xC2;&#xC1;_&#xCF;_&#xCC;&#xCC;_&#xC8;_&#xCB;&#xC2;&#xCC;&#xDA;_84"></linearGradient><linearGradient id="_&#xC2;&#xC1;_&#xCF;_&#xCC;&#xCC;_&#xC8;_&#xCB;&#xC2;&#xCC;&#xDA;_3" x1="681.82" y1="1208.78" x2="1536.64" y2="674.1" gradientUnits="userSpaceOnUse"><stop offset="0" stop-color="#8c493c"></stop><stop offset="0.13" stop-color="#9b645f"></stop><stop offset="0.34" stop-color="#b08b91"></stop><stop offset="0.54" stop-color="#c1a9b8"></stop><stop offset="0.72" stop-color="#cdbfd4"></stop><stop offset="0.88" stop-color="#d4cce5"></stop><stop offset="1" stop-color="#d7d1eb"></stop></linearGradient></defs><g id="Layer_2" data-name="Layer 2"><g id="_&#xCE;&#xD3;&#xC8;_1" data-name="&#x2014;&#xCE;&#xD3;&#xC8;_1"><polygon class="cls-1" points="0.06 669.46 172.19 768.84 172.6 542.38 0.06 442.76 0.06 669.46"></polygon><polygon class="cls-2" points="172.19 768.84 326.76 679.71 327.17 453.25 172.6 542.38 172.19 768.84"></polygon><polygon class="cls-3" points="0.06 442.76 172.6 542.38 327.17 453.25 154.62 353.63 0.06 442.76"></polygon><path class="cls-4" d="M77.19,486.8c-2.11-1.42-5.07-3.54-8.73-5.9-1.82-1.2-3.8-2.49-5.91-3.81s-4.33-2.75-6.66-4.15-4.7-2.91-7.17-4.35l-7.46-4.39-7.52-4.27c-2.47-1.43-5-2.74-7.34-4.06s-4.71-2.53-6.92-3.69-4.3-2.25-6.25-3.23c-3.87-2-7.19-3.49-9.47-4.62-1.14-.56-2.07-.95-2.69-1.24l-.95-.43-.12.2,40.11,23.33,40.23,23.13.11-.2-.85-.61C79.05,488.12,78.25,487.51,77.19,486.8Z"></path><path class="cls-4" d="M169.28,539.82c-2.19-1.49-5.27-3.72-9.06-6.21-1.89-1.26-3.93-2.62-6.13-4s-4.49-2.89-6.9-4.36-4.88-3.06-7.45-4.57L132,516.06l-7.82-4.49c-2.56-1.5-5.15-2.87-7.61-4.25s-4.89-2.66-7.19-3.88-4.46-2.35-6.48-3.38c-4-2.09-7.47-3.66-9.84-4.84-1.18-.59-2.15-1-2.79-1.3l-1-.45H86.88s23.1,12.47,43.91,24.72l41.75,24.29.12-.21-.88-.65C171.2,541.21,170.37,540.56,169.28,539.82Z"></path><path class="cls-5" d="M76.51,653.36,53.73,640.49c-2.45-1.39-4.52.22-4.62,3.59l-.87,31.23c-.09,3.37,1.83,7.23,4.28,8.62L75.29,696.8c2.46,1.39,4.53-.22,4.62-3.58L80.79,662C80.88,658.61,79,654.75,76.51,653.36ZM78,692.13c0,1.91-1.23,2.82-2.62,2L52.59,681.29a5.87,5.87,0,0,1-2.43-4.89L51,645.16c.05-1.91,1.23-2.82,2.62-2L76.43,656a5.83,5.83,0,0,1,2.43,4.89Z"></path><path class="cls-5" d="M65.52,655.69l.09-2.39-1.16-.65L64.36,655c-5.43-2.62-9.9,1.11-10.11,8.5l0,0c.31-2,1.75-3.2,3.43-2.25s3,3.75,3.2,6l.11.06c.29-2,1.47-2.73,2.94-2.33l-.47,12.29a6.41,6.41,0,0,1-.54,2.56c-.43.88-1.18,1.33-1.73,1-1.31-.67-2-1.8-1.88-4.68l-1.16-.52c-.05,2.21.44,5.29,3.14,6.81h0c1.07.61,2,.11,2.64-1.22a8.09,8.09,0,0,0,.68-3.21l.48-12.43a8.29,8.29,0,0,1,2.91,5.64l.1.06c.31-2,1.75-3.2,3.43-2.25s3,3.75,3.2,6l.06,0C75,667.77,70.92,659.19,65.52,655.69Z"></path><path class="cls-5" d="M113.93,675,91.15,662.17c-2.45-1.39-4.52.22-4.62,3.59L85.66,697c-.1,3.36,1.82,7.23,4.28,8.62l22.77,12.87c2.45,1.39,4.53-.22,4.62-3.59l.87-31.24C118.3,680.3,116.38,676.43,113.93,675Zm1.48,38.77c-.06,1.91-1.23,2.83-2.63,2L90,703a5.9,5.9,0,0,1-2.43-4.89l.88-31.24c.05-1.91,1.23-2.83,2.62-2l22.77,12.87a5.9,5.9,0,0,1,2.43,4.89Z"></path><polygon class="cls-6" points="93.34 700.39 109.7 709.64 109.79 706.47 93.43 697.22 93.34 700.39"></polygon><polygon class="cls-6" points="96.2 699.33 98.51 700.63 99.05 681.37 96.74 680.06 96.2 699.33"></polygon><polygon class="cls-6" points="98.17 672.73 96.45 676.85 94.72 681.04 97.89 682.83 101.05 684.61 99.61 678.67 98.17 672.73"></polygon><polygon class="cls-6" points="104.67 704.11 106.98 705.42 107.52 686.15 105.21 684.85 104.67 704.11"></polygon><polygon class="cls-6" points="106.64 677.51 104.91 681.63 103.19 685.82 106.35 687.61 109.52 689.4 108.08 683.46 106.64 677.51"></polygon><path class="cls-5" d="M151.83,696.47,129.06,683.6c-2.45-1.39-4.53.22-4.62,3.59l-.87,31.23c-.1,3.37,1.82,7.24,4.27,8.62l22.78,12.88c2.45,1.38,4.52-.23,4.62-3.59l.87-31.24C156.21,701.72,154.29,697.86,151.83,696.47Zm1.48,38.77c-.05,1.91-1.23,2.82-2.62,2L127.92,724.4a5.87,5.87,0,0,1-2.43-4.89l.87-31.24c.06-1.91,1.23-2.82,2.63-2l22.77,12.87a5.88,5.88,0,0,1,2.43,4.89Z"></path><path class="cls-5" d="M136.31,705.24c-.08,2.77,1.49,5.94,3.51,7.08s3.72-.17,3.8-2.94l.26-9.41-7.31-4.14Z"></path><polygon class="cls-6" points="138.71 724.12 140.25 724.99 140.79 705.55 139.25 704.68 138.71 724.12"></polygon><polygon class="cls-6" points="135.79 723.55 143.11 727.68 143.17 725.57 135.85 721.44 135.79 723.55"></polygon><polygon class="cls-7" points="695.72 793.78 461.79 658.02 667.86 541.8 900.13 675.9 695.72 793.78"></polygon><polygon class="cls-8" points="1093.79 662.08 861.52 527.98 653.45 647.97 695.72 793.78 885.72 782.07 1093.79 662.08"></polygon><polygon class="cls-1" points="461.86 656.62 693.17 790.16 694.13 254.09 461.86 119.98 461.86 656.62"></polygon><polygon class="cls-2" points="693.17 790.16 901.23 672.4 902.2 134.1 694.13 254.09 693.17 790.16"></polygon><polygon class="cls-3" points="461.86 119.98 694.13 254.09 902.2 134.1 669.93 0 461.86 119.98"></polygon><path class="cls-4" d="M565.7,179.26c-2.85-1.9-6.83-4.76-11.76-7.94-2.45-1.61-5.11-3.35-8-5.13s-5.82-3.7-9-5.59-6.34-3.91-9.66-5.85l-10-5.91-10.13-5.75c-3.33-1.93-6.68-3.68-9.88-5.46s-6.34-3.41-9.31-5-5.8-3-8.41-4.34c-5.22-2.67-9.68-4.7-12.76-6.22-1.53-.75-2.78-1.27-3.61-1.66l-1.29-.58-.15.27,54,31.4,54.15,31.14.16-.27-1.14-.82C568.19,181,567.12,180.21,565.7,179.26Z"></path><path class="cls-4" d="M689.66,250.64c-2.95-2-7.09-5-12.19-8.37-2.54-1.69-5.3-3.52-8.26-5.39s-6-3.89-9.29-5.87-6.57-4.12-10-6.15l-10.42-6.21-10.51-6c-3.45-2-6.93-3.87-10.26-5.73s-6.58-3.58-9.66-5.22-6-3.17-8.74-4.55c-5.41-2.81-10-4.93-13.24-6.51-1.59-.8-2.89-1.34-3.76-1.75l-1.33-.6-.16.28,56,33,56.2,32.7.16-.29-1.18-.87C692.25,252.51,691.13,251.64,689.66,250.64Z"></path><path class="cls-9" d="M813,613.35,778,634.5c-3.76,2.28-6.69,8.25-6.52,13.31l1.56,47c.17,5.06,3.37,7.32,7.14,5l35-21.15c3.77-2.28,6.69-8.25,6.53-13.31l-1.57-47C819.92,613.33,816.72,611.07,813,613.35Zm2,61.35-35,21.15c-2.13,1.29-3.95,0-4-2.86l-1.56-47c-.09-2.87,1.57-6.25,3.7-7.55l35-21.15c2.14-1.29,3.95,0,4,2.86l1.56,47C818.8,670,817.13,673.4,815,674.7Z"></path><path class="cls-9" d="M796.86,636l-.08-3.64L795,633.42l.08,3.62c-8.3,5.68-14.59,19-14.22,30.06l.08,0c.28-3.41,2.3-7.73,4.88-9.29s4.8.19,5.29,3.13l.17-.1a13.06,13.06,0,0,1,4.15-8.54l.43,18.69a16,16,0,0,1-.57,4.68c-.56,2-1.63,4-2.48,4.55-2,1.31-3.05.79-3.21-3.52l-1.76,1.28c.12,3.31,1.13,6.92,5.27,4.42h0c1.65-1,3-3.33,3.81-6.41a20.85,20.85,0,0,0,.72-5.87l-.44-18.9c2.4-.95,4.36.16,4.84,3.11l.16-.1c.28-3.41,2.3-7.72,4.88-9.29s4.81.19,5.3,3.13l.08,0C812.1,636.87,805.19,631.62,796.86,636Z"></path><path class="cls-9" d="M872.42,580.05l-34.71,19.62c-3.74,2.12-6.67,8-6.52,13.14l1.33,47.61c.14,5.13,3.3,7.58,7,5.47l34.72-19.62c3.73-2.11,6.66-8,6.52-13.14l-1.34-47.61C879.32,580.39,876.16,577.94,872.42,580.05Zm1.74,62.2-34.71,19.62c-2.12,1.2-3.92-.2-4-3.11l-1.33-47.61c-.08-2.91,1.58-6.25,3.7-7.45l34.71-19.63c2.13-1.19,3.92.2,4,3.11l1.33,47.61C878,637.7,876.28,641.05,874.16,642.25Z"></path><polygon class="cls-9" points="844.01 647.57 844.15 652.4 869.09 638.31 868.95 633.48 844.01 647.57"></polygon><polygon class="cls-9" points="860.38 609.31 861.21 638.67 864.73 636.68 863.9 607.32 860.38 609.31"></polygon><polygon class="cls-9" points="861.73 596.14 859.53 605.2 857.34 614.26 862.16 611.53 866.98 608.81 864.35 602.42 861.73 596.14"></polygon><polygon class="cls-9" points="847.48 616.61 848.3 645.97 851.82 643.98 851 614.62 847.48 616.61"></polygon><polygon class="cls-9" points="848.82 603.43 846.63 612.49 844.43 621.55 849.25 618.83 854.07 616.1 851.45 609.72 848.82 603.43"></polygon><path class="cls-9" d="M755.27,645.88,720.56,665.5c-3.74,2.12-6.67,8-6.52,13.14l1.33,47.61c.14,5.13,3.3,7.59,7,5.47l34.71-19.62c3.74-2.11,6.67-8,6.53-13.13l-1.34-47.62C762.17,646.22,759,643.77,755.27,645.88Zm1.74,62.2L722.3,727.7c-2.12,1.2-3.92-.19-4-3.1L717,677c-.08-2.91,1.58-6.25,3.7-7.45l34.71-19.62c2.13-1.2,3.92.19,4,3.1l1.33,47.61C760.79,703.53,759.13,706.88,757,708.08Z"></path><path class="cls-9" d="M732.68,670.83l.4,14.34c.12,4.22,2.71,6.24,5.79,4.5s5.47-6.58,5.36-10.8l-.41-14.34Z"></path><polygon class="cls-9" points="737.38 679.34 738.21 708.98 740.56 707.65 739.73 678.01 737.38 679.34"></polygon><polygon class="cls-9" points="733.77 709.86 733.86 713.08 745.01 706.77 744.92 703.56 733.77 709.86"></polygon><polygon class="cls-10" points="547.92 168.61 589.08 192.24 796.07 72.83 755.04 49.13 547.92 168.61"></polygon><polygon class="cls-11" points="564.7 178.25 571.93 182.25 780.16 63.64 773.45 59.77 564.7 178.25"></polygon><polygon class="cls-12" points="547.92 237.67 589.08 261.29 589.08 192.09 547.92 168.47 547.92 237.67"></polygon><polygon class="cls-12" points="544.12 704.21 585.28 727.83 585.28 658.63 544.12 635 544.12 704.21"></polygon><polygon class="cls-13" points="366.75 1141.42 59.38 963.04 330.15 810.34 635.34 986.54 366.75 1141.42"></polygon><polygon class="cls-14" points="143.88 832.99 366.75 1141.42 616.4 1126.03 859.83 985.65 885.82 911.54 461.86 656.62 143.88 832.99"></polygon><polygon class="cls-1" points="61.87 961.56 367.06 1137.76 367.11 950.86 61.92 774.66 61.87 961.56"></polygon><polygon class="cls-2" points="367.06 1137.76 640.45 980.1 640.5 793.21 367.11 950.86 367.06 1137.76"></polygon><polygon class="cls-3" points="61.92 774.66 367.11 950.86 640.5 793.21 335.31 617 61.92 774.66"></polygon><path class="cls-4" d="M198.35,852.55c-3.74-2.51-9-6.26-15.44-10.44-3.22-2.12-6.72-4.4-10.46-6.74s-7.65-4.86-11.77-7.34-8.32-5.15-12.69-7.69l-13.19-7.76L121.49,805c-4.37-2.52-8.77-4.83-13-7.16s-8.33-4.49-12.24-6.54-7.61-4-11-5.71c-6.86-3.51-12.72-6.18-16.76-8.17-2-1-3.65-1.68-4.75-2.19L62,774.48l-.2.35,71,41.27L203.92,857l.2-.35-1.5-1.09C201.63,854.88,200.22,853.8,198.35,852.55Z"></path><path class="cls-4" d="M361.23,946.33c-3.88-2.63-9.31-6.58-16-11-3.34-2.22-7-4.63-10.84-7.08s-7.94-5.12-12.21-7.73-8.64-5.4-13.17-8.07L295.3,904.3l-13.81-7.94c-4.54-2.65-9.11-5.08-13.48-7.52s-8.65-4.71-12.7-6.86-7.9-4.16-11.48-6c-7.11-3.69-13.2-6.48-17.39-8.56-2.1-1.05-3.8-1.76-4.94-2.29l-1.76-.8-.21.38,73.63,43.34L367,951l.21-.38-1.56-1.14C364.63,948.79,363.17,947.64,361.23,946.33Z"></path><polygon class="cls-10" points="190.93 848.43 232.09 872.06 505.48 714.35 464.32 690.73 190.93 848.43"></polygon><path class="cls-5" d="M280.72,1002.3l-36.17-20.45c-3.9-2.2-7.19.36-7.34,5.7l-1.39,49.62c-.15,5.35,2.9,11.49,6.8,13.69l36.17,20.45c3.9,2.2,7.19-.36,7.34-5.7l1.39-49.62C287.67,1010.64,284.62,1004.5,280.72,1002.3Zm2.35,61.58c-.08,3-1.95,4.48-4.16,3.23l-36.17-20.44c-2.22-1.25-4-4.74-3.86-7.77l1.39-49.62c.08-3,1.95-4.48,4.16-3.23l36.18,20.44c2.21,1.25,3.94,4.74,3.85,7.77Z"></path><polygon class="cls-6" points="248.03 1042.56 274.01 1057.25 274.15 1052.22 248.17 1037.53 248.03 1042.56"></polygon><polygon class="cls-6" points="252.57 1040.87 256.24 1042.94 257.1 1012.34 253.43 1010.27 252.57 1040.87"></polygon><polygon class="cls-6" points="255.69 998.62 252.96 1005.16 250.22 1011.82 255.25 1014.66 260.27 1017.5 257.98 1008.06 255.69 998.62"></polygon><polygon class="cls-6" points="266.02 1048.47 269.69 1050.55 270.55 1019.95 266.88 1017.87 266.02 1048.47"></polygon><polygon class="cls-6" points="269.14 1006.22 266.41 1012.77 263.67 1019.42 268.69 1022.26 273.72 1025.1 271.43 1015.66 269.14 1006.22"></polygon><path class="cls-5" d="M340.94,1036.33l-36.18-20.44c-3.9-2.21-7.19.35-7.34,5.7L296,1071.2c-.15,5.35,2.9,11.49,6.8,13.69L339,1105.34c3.9,2.2,7.19-.35,7.34-5.7l1.39-49.62C347.88,1044.68,344.83,1038.54,340.94,1036.33Zm2.35,61.58c-.09,3-2,4.49-4.17,3.24L303,1080.7c-2.21-1.25-3.94-4.73-3.86-7.77l1.39-49.62c.08-3,1.95-4.48,4.16-3.23l36.18,20.45c2.21,1.25,3.94,4.73,3.85,7.77Z"></path><path class="cls-5" d="M316.27,1050.26c-.12,4.4,2.38,9.44,5.59,11.25s5.91-.28,6-4.68l.42-14.95-11.62-6.56Z"></path><polygon class="cls-6" points="320.09 1080.26 322.54 1081.64 323.4 1050.75 320.96 1049.37 320.09 1080.26"></polygon><polygon class="cls-6" points="315.46 1079.34 327.07 1085.91 327.17 1082.55 315.55 1075.99 315.46 1079.34"></polygon><polygon class="cls-11" points="207.71 858.07 214.94 862.07 489.94 705.43 483.33 701.64 207.71 858.07"></polygon><polygon class="cls-12" points="190.93 917.49 232.09 941.12 232.09 871.91 190.93 848.29 190.93 917.49"></polygon><polygon class="cls-15" points="1369.55 966.8 1520.6 879.69 1288.33 745.59 1080.26 865.58 1081.66 870.39 969.96 832.99 707.22 1078.28 749.48 1224.1 939.49 1212.38 1311.9 999.72 1312.53 999.68 1369.54 966.8 1369.55 966.8 1369.55 966.8"></polygon><polygon class="cls-2" points="1123.58 1000.25 1326.64 883.16 1327.19 578.31 1119.58 694.11 1123.58 1000.25"></polygon><polygon class="cls-1" points="838.86 837.44 1123.46 1000.42 1124.03 696.92 838.86 532.27 838.86 837.44"></polygon><polygon class="cls-3" points="838.99 532.11 1124.16 696.75 1327.19 578.31 1047.06 412.12 838.99 532.11"></polygon><polygon class="cls-16" points="1212.98 699.23 1244.31 681.25 1244.76 626.47 1212.98 645.32 1212.98 699.23"></polygon><polygon class="cls-17" points="1212.98 947.92 1244.31 929.94 1244.76 875.16 1212.98 894.01 1212.98 947.92"></polygon><path class="cls-4" d="M979.25,612c-3.85-2.56-9.23-6.4-15.88-10.68-3.32-2.17-6.91-4.51-10.76-6.89s-7.86-5-12.1-7.52-8.56-5.26-13-7.86l-13.57-7.94-13.69-7.74c-4.49-2.58-9-5-13.35-7.33s-8.57-4.59-12.58-6.69-7.83-4.06-11.37-5.84c-7-3.59-13.08-6.32-17.23-8.36-2.08-1-3.77-1.71-4.89-2.23l-1.74-.78-.21.36,73,42.21L985,616.53l.21-.36-1.54-1.11C982.62,614.35,981.17,613.24,979.25,612Z"></path><path class="cls-4" d="M1118.45,692.34c-3.7-2.47-8.88-6.18-15.27-10.31-3.19-2.08-6.65-4.34-10.35-6.64s-7.57-4.8-11.64-7.25-8.24-5.07-12.56-7.57l-13.06-7.65-13.17-7.45c-4.33-2.49-8.69-4.76-12.86-7.06s-8.25-4.41-12.11-6.43-7.54-3.9-10.95-5.61c-6.78-3.46-12.59-6.07-16.59-8-2-1-3.62-1.65-4.71-2.15l-1.67-.74-.21.35,70.23,40.65,70.42,40.3.21-.35-1.49-1.07C1121.69,694.64,1120.3,693.57,1118.45,692.34Z"></path><polygon class="cls-10" points="963.47 604.45 994.8 622.43 1202.67 502.09 1171.35 484.11 963.47 604.45"></polygon><polygon class="cls-11" points="978.02 612.97 980.1 614.07 1186.97 493.66 1185.96 491.93 978.02 612.97"></polygon><polygon class="cls-10" points="927.38 481.26 1212.42 645.38 1244.5 626.7 959.08 462.86 927.38 481.26"></polygon><polygon class="cls-12" points="963.47 657.12 994.8 675.1 994.8 622.43 963.47 604.45 963.47 657.12"></polygon><polygon class="cls-12" points="962.36 908.21 993.68 927.88 993.68 881.07 962.36 863.16 962.36 908.21"></polygon><polygon class="cls-1" points="518.32 1086.8 750.04 1220.58 750.59 915.74 518.32 781.64 518.32 1086.8"></polygon><polygon class="cls-2" points="750.04 1220.58 958.11 1100.6 958.66 795.75 750.59 915.74 750.04 1220.58"></polygon><polygon class="cls-3" points="518.32 781.64 750.59 915.74 958.66 795.75 726.39 661.65 518.32 781.64"></polygon><path class="cls-4" d="M622.16,840.91c-2.85-1.9-6.84-4.75-11.76-7.94-2.45-1.61-5.11-3.35-7.95-5.13s-5.83-3.7-9-5.59-6.34-3.91-9.66-5.84l-10-5.92-10.13-5.75c-3.33-1.92-6.68-3.68-9.88-5.46s-6.34-3.41-9.31-5-5.8-3-8.41-4.35c-5.22-2.67-9.69-4.7-12.76-6.21-1.53-.76-2.78-1.28-3.61-1.67l-1.29-.58-.15.27,54,31.4,54.15,31.14.16-.27-1.15-.82C624.65,842.69,623.58,841.86,622.16,840.91Z"></path><path class="cls-4" d="M746.12,912.29c-3-2-7.09-5-12.19-8.36-2.55-1.7-5.3-3.53-8.26-5.4s-6-3.89-9.29-5.87-6.57-4.12-10-6.15l-10.42-6.21-10.51-6c-3.45-2-6.93-3.86-10.26-5.73s-6.58-3.58-9.66-5.22-6-3.16-8.74-4.55c-5.41-2.81-10-4.93-13.24-6.51-1.59-.8-2.89-1.34-3.76-1.75l-1.33-.6-.17.29,56,33,56.2,32.7.16-.29-1.19-.87C748.71,914.16,747.59,913.29,746.12,912.29Z"></path><polygon class="cls-10" points="616.51 837.78 647.83 855.76 855.9 735.74 824.58 717.76 616.51 837.78"></polygon><polygon class="cls-12" points="616.51 890.34 647.83 908.32 647.83 855.65 616.51 837.67 616.51 890.34"></polygon><path class="cls-5" d="M621.24,1065.13l-30.66-17.33c-3.3-1.87-6.09.3-6.22,4.83l-1.18,42c-.12,4.53,2.46,9.74,5.76,11.6l30.66,17.33c3.3,1.87,6.09-.3,6.22-4.83l1.18-42C627.12,1072.2,624.54,1067,621.24,1065.13Zm2,52.19c-.07,2.57-1.66,3.8-3.53,2.74L589,1102.73c-1.87-1.06-3.34-4-3.27-6.58l1.18-42.06c.07-2.57,1.66-3.8,3.53-2.74l30.66,17.33c1.87,1.06,3.34,4,3.27,6.59Z"></path><path class="cls-5" d="M606.44,1068.26l.12-3.22-1.55-.87-.12,3.2c-7.31-3.54-13.34,1.49-13.62,11.44l.07,0c.42-2.65,2.36-4.32,4.62-3s4,5,4.31,8.08l.14.09c.4-2.67,2-3.68,4-3.14l-.63,16.54a8.46,8.46,0,0,1-.73,3.45c-.58,1.19-1.59,1.79-2.33,1.4-1.75-.89-2.62-2.42-2.52-6.29l-1.56-.7c-.08,3,.59,7.12,4.21,9.17h0c1.44.81,2.67.13,3.55-1.65a10.78,10.78,0,0,0,.92-4.33l.64-16.73a11.14,11.14,0,0,1,3.92,7.6l.14.08c.42-2.65,2.35-4.32,4.62-3s4,5.05,4.31,8.08l.07,0C619.26,1084.52,613.71,1073,606.44,1068.26Z"></path><path class="cls-5" d="M671.61,1094.32,641,1077c-3.3-1.87-6.09.3-6.22,4.83l-1.18,42c-.12,4.53,2.46,9.73,5.76,11.6L670,1152.8c3.3,1.87,6.09-.3,6.22-4.83l1.18-42C677.49,1101.39,674.91,1096.19,671.61,1094.32Zm2,52.19c-.07,2.57-1.66,3.8-3.53,2.74l-30.66-17.33c-1.87-1.06-3.34-4-3.27-6.59l1.18-42c.07-2.57,1.66-3.8,3.53-2.74l30.66,17.33c1.87,1.06,3.34,4,3.26,6.59Z"></path><polygon class="cls-6" points="643.89 1128.44 665.92 1140.89 666.04 1136.62 644.01 1124.17 643.89 1128.44"></polygon><polygon class="cls-6" points="647.75 1127.01 650.86 1128.76 651.58 1102.83 648.47 1101.07 647.75 1127.01"></polygon><polygon class="cls-6" points="650.39 1091.19 648.08 1096.75 645.75 1102.38 650.01 1104.79 654.27 1107.2 652.33 1099.2 650.39 1091.19"></polygon><polygon class="cls-6" points="659.14 1133.45 662.25 1135.21 662.98 1109.27 659.87 1107.52 659.14 1133.45"></polygon><polygon class="cls-6" points="661.79 1097.64 659.47 1103.19 657.15 1108.83 661.41 1111.23 665.67 1113.64 663.73 1105.64 661.79 1097.64"></polygon><path class="cls-5" d="M722.64,1123.16,692,1105.83c-3.3-1.86-6.09.3-6.22,4.83l-1.18,42c-.12,4.53,2.46,9.74,5.76,11.61L721,1181.64c3.3,1.87,6.09-.3,6.22-4.83l1.17-42C728.52,1130.23,725.94,1125,722.64,1123.16Zm2,52.19c-.07,2.57-1.66,3.8-3.53,2.74l-30.66-17.33c-1.87-1.06-3.34-4-3.27-6.58l1.18-42c.07-2.57,1.65-3.8,3.53-2.74l30.66,17.33c1.87,1.06,3.34,4,3.26,6.58Z"></path><path class="cls-5" d="M701.73,1135c-.1,3.73,2,8,4.74,9.53s5-.24,5.11-4l.35-12.66-9.84-5.57Z"></path><polygon class="cls-6" points="704.97 1160.39 707.04 1161.56 707.77 1135.38 705.7 1134.21 704.97 1160.39"></polygon><polygon class="cls-6" points="701.04 1159.61 710.89 1165.18 710.97 1162.33 701.12 1156.77 701.04 1159.61"></polygon><path class="cls-9" d="M1245.3,790l-34.71,19.62c-3.74,2.12-6.66,8-6.52,13.14l1.33,47.61c.15,5.13,3.3,7.58,7,5.47l34.72-19.62c3.74-2.11,6.66-8,6.52-13.14l-1.33-47.61C1252.2,790.38,1249,787.93,1245.3,790Zm1.74,62.2-34.71,19.62c-2.12,1.2-3.91-.2-4-3.11L1207,821.14c-.08-2.91,1.58-6.26,3.7-7.45l34.72-19.63c2.12-1.2,3.91.2,4,3.11l1.34,47.61C1250.83,847.69,1249.17,851,1247,852.24Z"></path><polygon class="cls-9" points="1216.9 857.56 1217.03 862.39 1241.97 848.29 1241.83 843.47 1216.9 857.56"></polygon><polygon class="cls-9" points="1233.27 819.3 1234.09 848.66 1237.61 846.67 1236.79 817.31 1233.27 819.3"></polygon><polygon class="cls-9" points="1234.61 806.13 1232.41 815.19 1230.22 824.25 1235.04 821.52 1239.86 818.79 1237.23 812.41 1234.61 806.13"></polygon><polygon class="cls-9" points="1220.36 826.6 1221.18 855.96 1224.7 853.97 1223.88 824.61 1220.36 826.6"></polygon><polygon class="cls-9" points="1221.7 813.42 1219.51 822.48 1217.31 831.54 1222.13 828.82 1226.96 826.09 1224.33 819.71 1221.7 813.42"></polygon><path class="cls-9" d="M1186.73,823.74,1152,843.36c-3.74,2.11-6.67,8-6.53,13.13l1.34,47.62c.14,5.13,3.3,7.58,7,5.47L1188.58,890c3.74-2.12,6.67-8,6.52-13.14l-1.33-47.61C1193.63,824.08,1190.47,821.62,1186.73,823.74Zm1.74,62.19-34.71,19.62c-2.13,1.2-3.92-.19-4-3.1l-1.33-47.61c-.08-2.91,1.58-6.26,3.7-7.46l34.71-19.62c2.12-1.2,3.92.19,4,3.1l1.33,47.62C1192.25,881.39,1190.59,884.73,1188.47,885.93Z"></path><path class="cls-9" d="M1164.13,848.68l.41,14.35c.11,4.22,2.71,6.23,5.78,4.49s5.48-6.57,5.36-10.79l-.4-14.35Z"></path><polygon class="cls-9" points="1168.84 857.19 1169.67 886.83 1172.02 885.51 1171.19 855.87 1168.84 857.19"></polygon><polygon class="cls-9" points="1165.23 887.71 1165.32 890.93 1176.46 884.63 1176.37 881.41 1165.23 887.71"></polygon><polygon class="cls-16" points="235.72 560.45 267.04 542.47 267.89 488.04 235.72 506.54 235.72 560.45"></polygon><polygon class="cls-10" points="71.22 483.54 102.54 501.52 256.45 412.42 225.22 394.39 71.22 483.54"></polygon><polygon class="cls-12" points="71.22 536.21 102.54 554.19 102.54 501.52 71.22 483.54 71.22 536.21"></polygon><rect class="cls-18" x="73.69" y="445.83" width="177.83" height="3" transform="translate(-202.93 142.48) rotate(-30.2)"></rect><polygon class="cls-10" points="62.35 406.84 235.53 506.56 267.89 488.04 94.32 388.41 62.35 406.84"></polygon><polygon class="cls-19" points="461.86 488.9 461.86 656.62 600.45 737.56 518.32 590.39 461.86 488.9"></polygon><polygon class="cls-19" points="958.66 906.04 1123.58 1000.25 958.66 795.75 958.66 906.04"></polygon><path class="cls-20" d="M532.47,237.21c-68.15-41.05-145-19.63-148.43,56.07-.05,1.25,19.44,8.71,19.42,10-.46,21.68,4,46,12.17,70.63l90.42,348.17,35.42-20.17L647.92,513.32c7.25-13.28,9.09-35.5,9.5-54.63,0-1.17,0-2.34,0-3.53C657.46,375.89,601.69,278.89,532.47,237.21Zm-2,210.71C498,429,471.74,383.63,471.74,346.64S498,295,530.44,314s58.7,64.29,58.7,101.28S562.86,466.86,530.44,447.92Z"></path><path class="cls-21" d="M508.08,246.75c-68.16-40.56-125.5-13.26-128.89,61.53-.06,1.23-.1,2.48-.13,3.72-.46,21.42,4,45.43,12.17,69.78L506.05,722.05,621.1,513.93c7.25-13.13,11.52-29.45,11.93-48.35,0-1.15,0-2.31,0-3.48C633.07,383.77,577.29,287.93,508.08,246.75Zm-2,208.19c-32.42-18.72-58.7-63.52-58.7-100.07s26.28-51,58.7-32.29,58.7,63.52,58.7,100.07S538.47,473.66,506.05,454.94Z"></path></g></g></svg>