<svg xmlns="http://www.w3.org/2000/svg" xmlns:xlink="http://www.w3.org/1999/xlink" viewBox="0 0 660 450"><defs><style>.cls-1{isolation:isolate;}.cls-2{fill:#fff;}.cls-3{fill:#fff7c5;}.cls-4{fill:#aba5a6;}.cls-5{fill:#cecece;}.cls-12,.cls-13,.cls-20,.cls-5{opacity:0.32;}.cls-13,.cls-20,.cls-5{mix-blend-mode:overlay;}.cls-6{fill:#fbd53d;}.cls-7{fill:#bf3c43;}.cls-8{fill:#ff9700;}.cls-9{fill:#e01e28;}.cls-10{fill:#eaeced;}.cls-11{fill:#777;}.cls-12{fill:#ffb229;mix-blend-mode:multiply;}.cls-13{fill:url(#radial-gradient);}.cls-14{fill:#353535;}.cls-15{fill:#ac5e23;}.cls-16{fill:#482513;}.cls-17{fill:#cac7cc;}.cls-18{fill:#c6c6c6;}.cls-19{fill:#d70002;}.cls-20{fill:url(#radial-gradient-2);}.cls-21{fill:#fefefe;}.cls-22{fill:#d5d1d1;}</style><radialGradient id="radial-gradient" cx="413.74" cy="234.89" r="97.42" gradientUnits="userSpaceOnUse"><stop offset="0" stop-color="#ffc9bd"/><stop offset="0.33" stop-color="#dfbdb6"/><stop offset="0.77" stop-color="#b9afad"/><stop offset="1" stop-color="#aaa"/></radialGradient><radialGradient id="radial-gradient-2" cx="566" cy="231.76" r="104.82" gradientUnits="userSpaceOnUse"><stop offset="0" stop-color="#ffc9bd"/><stop offset="0.62" stop-color="#cbb6b1"/><stop offset="1" stop-color="#aaa"/></radialGradient></defs><g class="cls-1"><g id="Layer_2" data-name="Layer 2"><g id="Layer_1-2" data-name="Layer 1"><rect class="cls-2" width="660" height="450"/><path class="cls-3" d="M296.21,298.07s-72.43-134.23,48.34-138.52c144.17-5.13,226.93,70,150.34,139.66,0,0-90.08,5.91-115.74,5.29S296.21,298.07,296.21,298.07Z"/><path class="cls-4" d="M456.41,338.4s93.86-17.17,154,1.38C610.45,339.78,516.8,354.92,456.41,338.4Z"/><path class="cls-5" d="M456.41,338.4s93.86-17.17,154,1.38C610.45,339.78,516.8,354.92,456.41,338.4Z"/><path class="cls-4" d="M281.35,300.22s68.57-10.64,117.12-11.78,111.76,12.43,111.76,12.43-54.7,16.35-118.91,16.35C318.38,317.22,281.35,300.22,281.35,300.22Z"/><polygon class="cls-6" points="365.44 172.68 384.39 164.82 436.99 163.79 435.46 223.32 386 224.36 366.63 215.5 365.44 172.68"/><polygon class="cls-7" points="435.51 221.56 435.58 218.64 410.84 192.53 436.99 165.4 436.99 163.79 435.75 163.81 409.43 191.14 384.39 164.82 384.47 167.75 408.16 192.37 381.68 218.08 381.68 221.07 409.57 193.78 435.51 221.56"/><polygon class="cls-8" points="365.44 172.68 384.39 164.82 386 224.36 366.63 215.5 365.44 172.68"/><path class="cls-9" d="M417,164.18,417,176.06c3.16-.15,6.34-.33,9.53-.68l.09-11.39Z"/><path class="cls-9" d="M423,208.86c-4,.37-7.93.76-11.85,1.08l.17,13.89,11.86-.25Z"/><polygon class="cls-10" points="402.82 218.78 389.04 218.35 388.88 210 402.7 210.33 402.82 218.78"/><polygon class="cls-11" points="390.48 217.45 389.8 217.43 389.68 211.25 390.36 211.27 390.48 217.45"/><polygon class="cls-11" points="390.61 217.46 390.34 217.45 390.23 211.27 390.5 211.28 390.61 217.46"/><polygon class="cls-11" points="391.18 217.47 390.91 217.46 390.8 211.28 391.06 211.29 391.18 217.47"/><polygon class="cls-11" points="391.75 217.49 391.48 217.48 391.36 211.3 391.63 211.3 391.75 217.49"/><polygon class="cls-11" points="392.43 217.51 392.05 217.5 391.94 211.31 392.32 211.32 392.43 217.51"/><polygon class="cls-11" points="392.88 217.52 392.61 217.51 392.5 211.32 392.77 211.33 392.88 217.52"/><polygon class="cls-11" points="393.45 217.54 393.18 217.53 393.07 211.34 393.34 211.34 393.45 217.54"/><polygon class="cls-11" points="394.12 217.56 393.65 217.55 393.54 211.35 394.02 211.36 394.12 217.56"/><polygon class="cls-11" points="394.59 217.57 394.32 217.57 394.22 211.37 394.49 211.37 394.59 217.57"/><polygon class="cls-11" points="395.16 217.59 394.89 217.58 394.79 211.38 395.06 211.39 395.16 217.59"/><polygon class="cls-11" points="395.74 217.61 395.46 217.6 395.36 211.4 395.63 211.4 395.74 217.61"/><polygon class="cls-11" points="396.41 217.63 395.94 217.62 395.83 211.41 396.31 211.42 396.41 217.63"/><polygon class="cls-11" points="396.88 217.65 396.61 217.64 396.51 211.42 396.78 211.43 396.88 217.65"/><polygon class="cls-11" points="397.45 217.66 397.18 217.65 397.08 211.44 397.36 211.44 397.45 217.66"/><polygon class="cls-11" points="398.03 217.68 397.76 217.67 397.66 211.45 397.93 211.46 398.03 217.68"/><polygon class="cls-11" points="398.58 217.7 398.01 217.68 397.91 211.46 398.48 211.47 398.58 217.7"/><polygon class="cls-11" points="399.18 217.71 398.91 217.71 398.81 211.48 399.08 211.49 399.18 217.71"/><polygon class="cls-11" points="399.75 217.73 399.48 217.72 399.39 211.49 399.66 211.5 399.75 217.73"/><polygon class="cls-11" points="400.33 217.75 400.06 217.74 399.97 211.51 400.24 211.51 400.33 217.75"/><polygon class="cls-11" points="400.91 217.77 400.63 217.76 400.55 211.52 400.82 211.53 400.91 217.77"/><polygon class="cls-11" points="401.46 217.78 400.77 217.76 400.68 211.53 401.38 211.54 401.46 217.78"/><polygon class="cls-11" points="402.06 217.8 401.79 217.79 401.7 211.55 401.98 211.56 402.06 217.8"/><path class="cls-12" d="M402.51,198.43a46.22,46.22,0,0,1-15.38-14.91l.75,38.13H434l.18-16.5A54.1,54.1,0,0,1,402.51,198.43Z"/><polygon class="cls-6" points="397.88 214.22 416.8 206.36 469.31 205.33 467.79 264.86 418.41 265.9 399.06 257.04 397.88 214.22"/><polygon class="cls-7" points="467.83 263.09 467.91 260.18 443.21 234.07 469.31 206.94 469.31 205.33 468.08 205.35 441.79 232.68 416.8 206.36 416.88 209.29 440.53 233.91 414.09 259.62 414.09 262.61 441.94 235.31 467.83 263.09"/><polygon class="cls-8" points="397.88 214.22 416.8 206.36 418.41 265.9 399.06 257.04 397.88 214.22"/><path class="cls-9" d="M451.8,205.67,451.74,219c3.15-.15,6.32-.33,9.51-.68l.1-12.84Z"/><path class="cls-9" d="M455.35,250.4c-4,.37-7.92.76-11.84,1.08l.18,13.88,11.84-.25Z"/><polygon class="cls-10" points="435.2 260.31 421.44 259.89 421.28 251.54 435.08 251.86 435.2 260.31"/><polygon class="cls-11" points="422.87 258.99 422.2 258.97 422.08 252.79 422.76 252.81 422.87 258.99"/><polygon class="cls-11" points="423.01 258.99 422.74 258.99 422.63 252.81 422.89 252.81 423.01 258.99"/><polygon class="cls-11" points="423.57 259.01 423.31 259 423.19 252.82 423.46 252.83 423.57 259.01"/><polygon class="cls-11" points="424.14 259.03 423.87 259.02 423.76 252.84 424.03 252.84 424.14 259.03"/><polygon class="cls-11" points="424.83 259.05 424.45 259.04 424.34 252.85 424.72 252.86 424.83 259.05"/><polygon class="cls-11" points="425.27 259.06 425.01 259.05 424.9 252.86 425.17 252.87 425.27 259.06"/><polygon class="cls-11" points="425.84 259.08 425.57 259.07 425.47 252.88 425.74 252.88 425.84 259.08"/><polygon class="cls-11" points="426.51 259.1 426.04 259.08 425.94 252.89 426.41 252.9 426.51 259.1"/><polygon class="cls-11" points="426.98 259.11 426.71 259.11 426.61 252.91 426.88 252.91 426.98 259.11"/><polygon class="cls-11" points="427.55 259.13 427.28 259.12 427.18 252.92 427.45 252.93 427.55 259.13"/><polygon class="cls-11" points="428.13 259.15 427.85 259.14 427.75 252.93 428.02 252.94 428.13 259.15"/><polygon class="cls-11" points="428.8 259.17 428.32 259.15 428.22 252.94 428.7 252.96 428.8 259.17"/><polygon class="cls-11" points="429.27 259.18 429 259.18 428.9 252.96 429.17 252.97 429.27 259.18"/><polygon class="cls-11" points="429.84 259.2 429.57 259.19 429.47 252.97 429.74 252.98 429.84 259.2"/><polygon class="cls-11" points="430.41 259.22 430.14 259.21 430.05 252.99 430.32 253 430.41 259.22"/><polygon class="cls-11" points="430.96 259.23 430.4 259.22 430.3 253 430.87 253.01 430.96 259.23"/><polygon class="cls-11" points="431.56 259.25 431.29 259.24 431.2 253.02 431.47 253.03 431.56 259.25"/><polygon class="cls-11" points="432.14 259.27 431.87 259.26 431.77 253.03 432.05 253.04 432.14 259.27"/><polygon class="cls-11" points="432.71 259.29 432.44 259.28 432.35 253.05 432.62 253.05 432.71 259.29"/><polygon class="cls-11" points="433.29 259.3 433.02 259.3 432.93 253.06 433.2 253.07 433.29 259.3"/><polygon class="cls-11" points="433.84 259.32 433.15 259.3 433.06 253.06 433.76 253.08 433.84 259.32"/><polygon class="cls-11" points="434.44 259.34 434.17 259.33 434.08 253.09 434.36 253.1 434.44 259.34"/><path class="cls-12" d="M434.89,240a46.21,46.21,0,0,1-15.35-14.91l.74,38.13h46.06l.18-16.5A53.94,53.94,0,0,1,434.89,240Z"/><polygon class="cls-6" points="313.72 205.04 337.03 197.18 401.7 196.15 399.83 255.68 339.01 256.72 315.19 247.86 313.72 205.04"/><polygon class="cls-7" points="399.88 253.92 399.98 251 369.55 224.89 401.7 197.76 401.7 196.15 400.19 196.17 367.81 223.5 337.03 197.18 337.13 200.11 366.26 224.73 333.69 250.44 333.69 253.44 367.99 226.14 399.88 253.92"/><polygon class="cls-8" points="313.72 205.04 337.03 197.18 339.01 256.72 315.19 247.86 313.72 205.04"/><path class="cls-9" d="M345.6,197.05l-.07,11.37c3.89-.15,7.8-.33,11.72-.68l.1-10.88Z"/><path class="cls-9" d="M384.5,241.22c-4.89.37-9.74.76-14.57,1.08l.22,13.89,14.58-.25Z"/><path class="cls-12" d="M359.31,230.79a53.15,53.15,0,0,1-18.91-14.91l.91,38.13h56.74l.22-16.5A79.39,79.39,0,0,1,359.31,230.79Z"/><polygon class="cls-6" points="426.5 259.03 442.19 251.9 484.52 249.75 483.27 300.67 442.28 303.35 426.25 296.16 426.5 259.03"/><polygon class="cls-8" points="426.5 259.03 442.19 251.9 442.28 303.35 426.25 296.16 426.5 259.03"/><path class="cls-9" d="M454.08,259.7c3.56-.23,7.14-.47,10.72-.83l.14-8.13-10.71.55Z"/><path class="cls-9" d="M473.11,288.44c-3.26.45-6.51.92-9.74,1.33V302l9.8-.64Z"/><polygon class="cls-10" points="456.39 297.8 444.94 297.9 444.97 290.56 456.41 290.38 456.39 297.8"/><polygon class="cls-11" points="446.15 297.06 445.59 297.07 445.61 291.63 446.17 291.62 446.15 297.06"/><polygon class="cls-11" points="446.26 297.06 446.04 297.06 446.06 291.63 446.29 291.62 446.26 297.06"/><polygon class="cls-11" points="446.73 297.06 446.51 297.06 446.53 291.62 446.76 291.62 446.73 297.06"/><polygon class="cls-11" points="447.21 297.05 446.98 297.05 447.01 291.61 447.23 291.61 447.21 297.05"/><polygon class="cls-11" points="447.78 297.05 447.46 297.05 447.49 291.6 447.8 291.6 447.78 297.05"/><polygon class="cls-11" points="448.15 297.04 447.93 297.05 447.95 291.6 448.17 291.59 448.15 297.04"/><polygon class="cls-11" points="448.63 297.04 448.4 297.04 448.42 291.59 448.65 291.59 448.63 297.04"/><polygon class="cls-11" points="449.18 297.03 448.79 297.04 448.81 291.58 449.2 291.58 449.18 297.03"/><polygon class="cls-11" points="449.57 297.03 449.35 297.03 449.37 291.58 449.6 291.57 449.57 297.03"/><polygon class="cls-11" points="450.05 297.02 449.82 297.03 449.85 291.57 450.07 291.57 450.05 297.02"/><polygon class="cls-11" points="450.52 297.02 450.3 297.02 450.32 291.56 450.54 291.56 450.52 297.02"/><polygon class="cls-11" points="451.08 297.01 450.69 297.02 450.71 291.56 451.1 291.55 451.08 297.01"/><polygon class="cls-11" points="451.48 297.01 451.25 297.01 451.27 291.55 451.5 291.55 451.48 297.01"/><polygon class="cls-11" points="451.95 297.01 451.73 297.01 451.75 291.54 451.97 291.54 451.95 297.01"/><polygon class="cls-11" points="452.43 297 452.2 297 452.22 291.54 452.45 291.53 452.43 297"/><polygon class="cls-11" points="452.88 297 452.41 297 452.43 291.53 452.9 291.53 452.88 297"/><polygon class="cls-11" points="453.38 296.99 453.16 297 453.18 291.52 453.4 291.52 453.38 296.99"/><polygon class="cls-11" points="453.86 296.99 453.63 296.99 453.65 291.52 453.88 291.51 453.86 296.99"/><polygon class="cls-11" points="454.34 296.98 454.11 296.99 454.13 291.51 454.36 291.51 454.34 296.98"/><polygon class="cls-11" points="454.82 296.98 454.59 296.98 454.61 291.5 454.83 291.5 454.82 296.98"/><polygon class="cls-11" points="455.27 296.98 454.7 296.98 454.72 291.5 455.29 291.49 455.27 296.98"/><polygon class="cls-11" points="455.77 296.97 455.55 296.97 455.56 291.49 455.79 291.49 455.77 296.97"/><path class="cls-12" d="M456.41,280a35.73,35.73,0,0,1-12.36-12.36l-.15,33.19,38.18-1.62.17-14.39A41,41,0,0,1,456.41,280Z"/><polygon class="cls-6" points="348.95 237.93 375.88 227.84 445.15 227.84 443.19 304.69 376.44 308.33 348.95 296.83 348.95 237.93"/><polygon class="cls-8" points="348.95 237.93 375.88 227.84 376.44 308.33 348.95 296.83 348.95 237.93"/><path class="cls-9" d="M431.13,245.07V227.84H413.74v17.83C419.55,245.55,425.35,245.4,431.13,245.07Z"/><path class="cls-9" d="M403,290.41l.17,16.46,15.88-.86-.17-16.74C413.6,289.65,408.3,290.06,403,290.41Z"/><rect class="cls-10" x="380.77" y="292.35" width="19.1" height="11.5"/><rect class="cls-11" x="381.85" y="294.04" width="0.95" height="8.5"/><rect class="cls-11" x="382.61" y="294.04" width="0.38" height="8.5"/><rect class="cls-11" x="383.4" y="294.04" width="0.38" height="8.5"/><rect class="cls-11" x="384.2" y="294.04" width="0.38" height="8.5"/><rect class="cls-11" x="385" y="294.04" width="0.53" height="8.5"/><rect class="cls-11" x="385.78" y="294.04" width="0.38" height="8.5"/><rect class="cls-11" x="386.58" y="294.04" width="0.38" height="8.5"/><rect class="cls-11" x="387.23" y="294.04" width="0.66" height="8.5"/><rect class="cls-11" x="388.16" y="294.04" width="0.38" height="8.5"/><rect class="cls-11" x="388.96" y="294.04" width="0.38" height="8.5"/><rect class="cls-11" x="389.75" y="294.04" width="0.38" height="8.5"/><rect class="cls-11" x="390.4" y="294.04" width="0.66" height="8.5"/><rect class="cls-11" x="391.34" y="294.04" width="0.38" height="8.5"/><rect class="cls-11" x="392.13" y="294.04" width="0.38" height="8.5"/><rect class="cls-11" x="392.92" y="294.04" width="0.38" height="8.5"/><rect class="cls-11" x="393.27" y="294.04" width="0.78" height="8.5"/><rect class="cls-11" x="394.51" y="294.04" width="0.38" height="8.5"/><rect class="cls-11" x="395.3" y="294.04" width="0.38" height="8.5"/><rect class="cls-11" x="396.09" y="294.04" width="0.38" height="8.5"/><rect class="cls-11" x="396.89" y="294.04" width="0.38" height="8.5"/><rect class="cls-11" x="397.08" y="294.04" width="0.95" height="8.5"/><rect class="cls-11" x="398.47" y="294.04" width="0.38" height="8.5"/><path class="cls-12" d="M399.87,272.57a60.56,60.56,0,0,1-20.72-19.84V304.5l62.17-2,.26-21.67C427.61,282.74,411.79,279.23,399.87,272.57Z"/><polygon class="cls-6" points="298.84 254.94 316.47 246.05 365.78 243.34 364.43 303.13 320.08 306.19 302.05 298.36 298.84 254.94"/><polygon class="cls-8" points="298.84 254.94 316.47 246.05 320.08 306.19 302.05 298.36 298.84 254.94"/><path class="cls-9" d="M322,258.37c4.09-.28,8.21-.58,12.33-1l-.14-12.26-12.51.69Z"/><path class="cls-9" d="M353.19,289.58c-3.59.52-7.15,1.06-10.7,1.53l.39,13.5,10.61-.73Z"/><polygon class="cls-10" points="335.13 300.08 322.64 300.22 322.23 292.05 334.83 291.82 335.13 300.08"/><polygon class="cls-11" points="323.91 299.29 323.3 299.3 323 293.25 323.62 293.24 323.91 299.29"/><polygon class="cls-11" points="324.04 299.29 323.79 299.29 323.5 293.24 323.74 293.24 324.04 299.29"/><polygon class="cls-11" points="324.55 299.28 324.31 299.29 324.01 293.23 324.26 293.23 324.55 299.28"/><polygon class="cls-11" points="325.07 299.28 324.82 299.28 324.53 293.22 324.78 293.22 325.07 299.28"/><polygon class="cls-11" points="325.69 299.27 325.35 299.27 325.06 293.21 325.41 293.21 325.69 299.27"/><polygon class="cls-11" points="326.1 299.26 325.86 299.27 325.57 293.2 325.82 293.2 326.1 299.26"/><polygon class="cls-11" points="326.62 299.26 326.37 299.26 326.09 293.2 326.34 293.19 326.62 299.26"/><polygon class="cls-11" points="327.23 299.25 326.8 299.25 326.52 293.19 326.95 293.18 327.23 299.25"/><polygon class="cls-11" points="327.65 299.25 327.41 299.25 327.14 293.18 327.38 293.17 327.65 299.25"/><polygon class="cls-11" points="328.17 299.24 327.93 299.24 327.66 293.17 327.91 293.17 328.17 299.24"/><polygon class="cls-11" points="328.69 299.23 328.44 299.24 328.18 293.16 328.43 293.16 328.69 299.23"/><polygon class="cls-11" points="329.3 299.22 328.87 299.23 328.61 293.15 329.04 293.15 329.3 299.22"/><polygon class="cls-11" points="329.73 299.22 329.48 299.22 329.23 293.14 329.48 293.14 329.73 299.22"/><polygon class="cls-11" points="330.25 299.21 330 299.21 329.75 293.13 330 293.13 330.25 299.21"/><polygon class="cls-11" points="330.77 299.21 330.52 299.21 330.27 293.13 330.52 293.12 330.77 299.21"/><polygon class="cls-11" points="331.27 299.2 330.75 299.21 330.51 293.12 331.02 293.11 331.27 299.2"/><polygon class="cls-11" points="331.81 299.19 331.57 299.2 331.32 293.11 331.57 293.1 331.81 299.19"/><polygon class="cls-11" points="332.33 299.19 332.09 299.19 331.85 293.1 332.1 293.09 332.33 299.19"/><polygon class="cls-11" points="332.86 299.18 332.61 299.18 332.37 293.09 332.62 293.08 332.86 299.18"/><polygon class="cls-11" points="333.38 299.17 333.13 299.18 332.9 293.08 333.15 293.08 333.38 299.17"/><polygon class="cls-11" points="333.88 299.17 333.26 299.18 333.02 293.08 333.65 293.07 333.88 299.17"/><polygon class="cls-11" points="334.43 299.16 334.18 299.16 333.95 293.06 334.2 293.06 334.43 299.16"/><path class="cls-12" d="M334.38,280a44.18,44.18,0,0,1-14.65-14.57l2,38,41.44-1.89.13-16.09C353.55,287.14,342.64,284.78,334.38,280Z"/><path class="cls-13" d="M483.39,295.92l1.13-46.17-16.37.83,1.12-43.6,0,0v-1.61l-1.23,0h0l-6.73.13h0l-1.21,0L435.9,206l1-40.53,0,0v-1.61l-1.23,0h0l-9.16.18h0l-9.56.19h0l-32.63.64-19,7.86.67,24-8.76.14h0l-11.75.19h0l-8.57.13L313.72,205l1.43,41.68-16.31,8.22L302,297.28c-12.55,1.69-20.62,2.94-20.62,2.94s37,17,110,17c64.21,0,118.91-16.35,118.91-16.35S499.45,298.56,483.39,295.92Z"/><path class="cls-14" d="M546.79,165.78s-19.42,5.91-19.61,8,6.8,2.86,21.19-.49C548.37,173.27,547.77,166.17,546.79,165.78Z"/><polygon class="cls-14" points="542.95 170.66 585.59 317.45 591.7 317.45 550.04 168.24 542.95 170.66"/><path class="cls-14" d="M553.15,167.76a5.56,5.56,0,1,1-5.55-6A5.8,5.8,0,0,1,553.15,167.76Z"/><path class="cls-6" d="M504.14,225.71,510.87,248l38.59-8.57s38.88-4.58,38.28-5-8-24.83-8-24.83L540,207.05Z"/><polygon class="cls-8" points="504.14 225.71 510.87 247.95 549.46 239.38 540 207.05 504.14 225.71"/><polygon class="cls-9" points="564.14 212.5 565.72 218.78 578.83 219.34 577.15 213.23 564.14 212.5"/><polygon class="cls-10" points="511.4 233.04 521.54 228.93 519.46 223.35 509.6 227.83 511.4 233.04"/><polygon class="cls-11" points="520.13 228.76 520.67 228.54 519.09 224.39 518.56 224.63 520.13 228.76"/><polygon class="cls-11" points="520.02 228.81 520.24 228.72 518.67 224.59 518.46 224.68 520.02 228.81"/><polygon class="cls-11" points="519.58 228.99 519.79 228.9 518.23 224.78 518.02 224.88 519.58 228.99"/><polygon class="cls-11" points="519.13 229.17 519.34 229.09 517.79 224.98 517.59 225.07 519.13 229.17"/><polygon class="cls-11" points="518.6 229.39 518.89 229.27 517.36 225.18 517.07 225.31 518.6 229.39"/><polygon class="cls-11" points="518.25 229.54 518.46 229.45 516.94 225.37 516.74 225.46 518.25 229.54"/><polygon class="cls-11" points="517.82 229.71 518.02 229.63 516.51 225.56 516.31 225.66 517.82 229.71"/><polygon class="cls-11" points="517.31 229.92 517.67 229.78 516.16 225.72 515.82 225.88 517.31 229.92"/><polygon class="cls-11" points="516.96 230.07 517.16 229.99 515.67 225.94 515.48 226.03 516.96 230.07"/><polygon class="cls-11" points="516.53 230.24 516.74 230.16 515.26 226.13 515.06 226.22 516.53 230.24"/><polygon class="cls-11" points="516.11 230.42 516.31 230.33 514.85 226.32 514.65 226.41 516.11 230.42"/><polygon class="cls-11" points="515.62 230.62 515.97 230.48 514.51 226.47 514.17 226.63 515.62 230.62"/><polygon class="cls-11" points="515.28 230.76 515.48 230.68 514.03 226.69 513.84 226.78 515.28 230.76"/><polygon class="cls-11" points="514.87 230.93 515.07 230.85 513.63 226.87 513.44 226.96 514.87 230.93"/><polygon class="cls-11" points="514.46 231.1 514.65 231.02 513.23 227.05 513.04 227.14 514.46 231.1"/><polygon class="cls-11" points="514.08 231.26 514.48 231.09 513.06 227.13 512.67 227.31 514.08 231.26"/><polygon class="cls-11" points="513.65 231.43 513.84 231.35 512.44 227.41 512.26 227.5 513.65 231.43"/><polygon class="cls-11" points="513.25 231.59 513.44 231.52 512.05 227.59 511.87 227.67 513.25 231.59"/><polygon class="cls-11" points="512.86 231.76 513.05 231.68 511.66 227.77 511.48 227.85 512.86 231.76"/><polygon class="cls-11" points="512.47 231.92 512.65 231.84 511.28 227.94 511.1 228.02 512.47 231.92"/><polygon class="cls-11" points="512.09 232.07 512.56 231.88 511.19 227.98 510.73 228.19 512.09 232.07"/><polygon class="cls-11" points="511.69 232.24 511.87 232.16 510.52 228.29 510.34 228.37 511.69 232.24"/><polygon class="cls-6" points="604.25 225.9 556.36 224.74 502.55 247.26 521.32 318.67 587.11 320.23 627.12 291.16 604.25 225.9"/><polygon class="cls-6" points="604.25 225.9 556.36 224.74 502.55 247.26 521.32 318.67 587.11 320.23 627.12 291.16 604.25 225.9"/><path class="cls-12" d="M615.92,267.31A40.45,40.45,0,0,1,605,268.85c-22.26,0-40.85-18.34-41.35-40.51l-3.59-.08,17.74,57.54,45.45,2.56Z"/><polygon class="cls-8" points="575.48 288.36 556.36 224.74 502.55 247.26 521.32 318.67 587.11 320.23 627.12 291.16 575.48 288.36"/><polygon class="cls-15" points="575.48 288.36 521.32 318.67 587.11 320.23 627.12 291.16 575.48 288.36"/><polygon class="cls-9" points="585.68 225.45 604.45 289.93 570.09 319.82 579.53 320.05 612.78 290.39 593.54 225.64 585.68 225.45"/><polygon class="cls-16" points="604.45 289.93 570.09 319.82 579.53 320.05 612.78 290.39 604.45 289.93"/><path class="cls-14" d="M585.11,330.87c-3.05,5.4-8.48,7.64-12.13,5s-4.13-9.13-1.08-14.52,8.48-7.63,12.13-5S588.16,325.48,585.11,330.87Z"/><polygon class="cls-14" points="588.48 322.29 511.47 322.85 513 315.33 594.59 316.74 588.48 322.29"/><path class="cls-14" d="M525,317.73l30.47-17.49a2.9,2.9,0,0,1,1.44-.38h52.14a2.36,2.36,0,0,1,1.49,4.19l-19.8,16.18-6.22-1.56,19.18-13.82a.42.42,0,0,0-.25-.76l-44.39.43a2.88,2.88,0,0,0-1.41.37L533.1,318.67Z"/><path class="cls-14" d="M479.12,168.55s-19.41,5.91-19.61,8,6.8,2.86,21.19-.49C480.7,176,480.11,168.94,479.12,168.55Z"/><polygon class="cls-14" points="475.28 173.44 517.92 320.23 524.03 320.23 482.38 171.01 475.28 173.44"/><path class="cls-14" d="M485.48,170.53a5.56,5.56,0,1,1-5.54-6A5.8,5.8,0,0,1,485.48,170.53Z"/><polygon class="cls-14" points="515.37 306.49 511.47 317.14 515.9 318.17 518.63 310.93 515.37 306.49"/><path class="cls-14" d="M518.61,336.41c-4.12,7.29-11.46,10.32-16.39,6.78s-5.58-12.33-1.46-19.62,11.46-10.32,16.39-6.77S522.74,329.13,518.61,336.41Z"/><path class="cls-17" d="M514,333.13c-2,3.56-5.59,5-8,3.31s-2.73-6-.71-9.58,5.59-5,8-3.31S516.06,329.57,514,333.13Z"/><path class="cls-18" d="M509.78,331.42c-1.7-1.22-2.11-4-1.13-6.6a6.9,6.9,0,0,0-2.51,2.62c-1.64,2.9-1.38,6.38.58,7.79s4.87.21,6.51-2.69a7.87,7.87,0,0,0,.55-1.18A3.58,3.58,0,0,1,509.78,331.42Z"/><polygon class="cls-19" points="515.05 249.58 517.59 256.82 542.95 246.33 540.66 238.57 515.05 249.58"/><polygon class="cls-9" points="552.27 265.69 566.33 257.93 581.83 262.29 585.16 274.71 570.3 270.79 557.44 277.52 552.27 265.69"/><polygon class="cls-19" points="552.27 265.69 566.33 257.93 570.3 270.79 557.44 277.52 552.27 265.69"/><path class="cls-20" d="M611.38,302.59l15.74-11.43L604.25,225.9l-10.71-.26h0l-7.86-.19h0l-1,0c-2.26-7.13-4.92-15.91-4.92-15.91l-18.14-1.13-10.45-36.06a6.18,6.18,0,0,0,2-4.57,5.81,5.81,0,0,0-5.55-6,5.75,5.75,0,0,0-5.5,5.54c-5.75,1.89-14.79,5.08-14.92,6.49-.18,1.84,5.38,2.66,16.79.44l10,33.72-14-.87-35.86,18.66,5.61,18.54-6,2.5-20.26-71.64a6.25,6.25,0,0,0,2-4.58,5.8,5.8,0,0,0-5.54-6,5.73,5.73,0,0,0-5.5,5.53c-5.76,1.9-14.79,5.08-14.93,6.49-.17,1.85,5.39,2.67,16.79.45l38.28,131.67-2.45,6.68c-4.08.17-8.5,3.17-11.37,8.24-4.12,7.29-3.47,16.07,1.46,19.62s12.27.51,16.39-6.78a19.26,19.26,0,0,0,2.28-13.63l50.51-.36c-2.44,5.16-1.84,11,1.58,13.47,3.65,2.62,9.08.38,12.13-5A14.71,14.71,0,0,0,587,322.3h1.45l2.28-2.06,19.8-16.18A2.3,2.3,0,0,0,611.38,302.59Z"/><polygon class="cls-21" points="295.68 196.38 293.98 202.97 287.64 204.52 293.98 206.77 295.68 214.59 296.88 206.77 302.31 204.52 296.99 202.97 295.68 196.38"/><polygon class="cls-21" points="482.05 228.76 480.77 233.72 476 234.88 480.77 236.58 482.05 242.47 482.95 236.58 487.04 234.88 483.04 233.72 482.05 228.76"/><polygon class="cls-21" points="348.11 171.76 347.21 175.24 343.87 176.05 347.21 177.24 348.11 181.36 348.74 177.24 351.6 176.05 348.8 175.24 348.11 171.76"/><polygon class="cls-21" points="305.96 234.53 305.07 238 301.73 238.82 305.07 240 305.96 244.13 306.6 240 309.46 238.82 306.65 238 305.96 234.53"/><polygon class="cls-22" points="577.11 175.55 575.41 182.14 569.07 183.68 575.41 185.93 577.11 193.75 578.31 185.93 583.74 183.68 578.42 182.14 577.11 175.55"/><polygon class="cls-22" points="623.72 211.29 622.52 215.94 618.05 217.02 622.52 218.61 623.72 224.12 624.56 218.61 628.38 217.02 624.64 215.94 623.72 211.29"/></g></g></g></svg>