{
    "asset" : {
        "generator" : "Khronos glTF Blender I/O v1.7.33",
        "version" : "2.0"
    },
    "scene" : 0,
    "scenes" : [
        {
            "name" : "Scene",
            "nodes" : [
                0
            ]
        }
    ],
    "nodes" : [
        {
            "mesh" : 0,
            "name" : "Logo",
            "rotation" : [
                0.7071068286895752,
                0,
                0,
                0.7071068286895752
            ],
            "scale" : [
                0.25,
                0.25,
                0.25
            ]
        }
    ],
    "materials" : [
        {
            "doubleSided" : true,
            "name" : "Logo_Green",
            "pbrMetallicRoughness" : {
                "baseColorFactor" : [
                    0.05951112508773804,
                    0.7379107475280762,
                    0.41254276037216187,
                    1
                ],
                "metallicFactor" : 0,
                "roughnessFactor" : 0.5
            }
        },
        {
            "doubleSided" : true,
            "name" : "Logo_GreenBlue",
            "pbrMetallicRoughness" : {
                "baseColorFactor" : [
                    0.016807332634925842,
                    0.4286905825138092,
                    0.37626224756240845,
                    1
                ],
                "metallicFactor" : 0,
                "roughnessFactor" : 0.5
            }
        },
        {
            "doubleSided" : true,
            "name" : "Logo_Blue",
            "pbrMetallicRoughness" : {
                "baseColorFactor" : [
                    0.03954616189002991,
                    0.5775805711746216,
                    0.8468736410140991,
                    1
                ],
                "metallicFactor" : 0,
                "roughnessFactor" : 0.5
            }
        },
        {
            "doubleSided" : true,
            "name" : "Logo_purple",
            "pbrMetallicRoughness" : {
                "baseColorFactor" : [
                    0.15592648088932037,
                    0.03560132905840874,
                    0.30946895480155945,
                    1
                ],
                "metallicFactor" : 0,
                "roughnessFactor" : 0.5
            }
        }
    ],
    "meshes" : [
        {
            "name" : "Plane.001",
            "primitives" : [
                {
                    "attributes" : {
                        "POSITION" : 0,
                        "NORMAL" : 1,
                        "TEXCOORD_0" : 2
                    },
                    "indices" : 3,
                    "material" : 0
                },
                {
                    "attributes" : {
                        "POSITION" : 4,
                        "NORMAL" : 5,
                        "TEXCOORD_0" : 6
                    },
                    "indices" : 7,
                    "material" : 1
                },
                {
                    "attributes" : {
                        "POSITION" : 8,
                        "NORMAL" : 9,
                        "TEXCOORD_0" : 10
                    },
                    "indices" : 11,
                    "material" : 2
                },
                {
                    "attributes" : {
                        "POSITION" : 12,
                        "NORMAL" : 13,
                        "TEXCOORD_0" : 14
                    },
                    "indices" : 15,
                    "material" : 3
                }
            ]
        }
    ],
    "accessors" : [
        {
            "bufferView" : 0,
            "componentType" : 5126,
            "count" : 84,
            "max" : [
                0.6412402987480164,
                0.20672321319580078,
                -0.004749054089188576
            ],
            "min" : [
                -1.9109899997711182,
                -4.39189804524176e-08,
                -3.3114397525787354
            ],
            "type" : "VEC3"
        },
        {
            "bufferView" : 1,
            "componentType" : 5126,
            "count" : 84,
            "type" : "VEC3"
        },
        {
            "bufferView" : 2,
            "componentType" : 5126,
            "count" : 84,
            "type" : "VEC2"
        },
        {
            "bufferView" : 3,
            "componentType" : 5123,
            "count" : 120,
            "type" : "SCALAR"
        },
        {
            "bufferView" : 4,
            "componentType" : 5126,
            "count" : 36,
            "max" : [
                0.3051699995994568,
                0.20672300457954407,
                -0.004749054089188576
            ],
            "min" : [
                -0.6225192546844482,
                -4.391897689970392e-08,
                -1.0870883464813232
            ],
            "type" : "VEC3"
        },
        {
            "bufferView" : 5,
            "componentType" : 5126,
            "count" : 36,
            "type" : "VEC3"
        },
        {
            "bufferView" : 6,
            "componentType" : 5126,
            "count" : 36,
            "type" : "VEC2"
        },
        {
            "bufferView" : 7,
            "componentType" : 5123,
            "count" : 60,
            "type" : "SCALAR"
        },
        {
            "bufferView" : 8,
            "componentType" : 5126,
            "count" : 82,
            "max" : [
                1.9120543003082275,
                0.20672310888767242,
                -0.002663974417373538
            ],
            "min" : [
                -0.0010351836681365967,
                -4.130343711494788e-08,
                -2.2037339210510254
            ],
            "type" : "VEC3"
        },
        {
            "bufferView" : 9,
            "componentType" : 5126,
            "count" : 82,
            "type" : "VEC3"
        },
        {
            "bufferView" : 10,
            "componentType" : 5126,
            "count" : 82,
            "type" : "VEC2"
        },
        {
            "bufferView" : 11,
            "componentType" : 5123,
            "count" : 108,
            "type" : "SCALAR"
        },
        {
            "bufferView" : 12,
            "componentType" : 5126,
            "count" : 10,
            "max" : [
                -0.29538318514823914,
                0.20672295987606049,
                -0.536873996257782
            ],
            "min" : [
                -0.31968075037002563,
                7.121347511684917e-09,
                -0.5558867454528809
            ],
            "type" : "VEC3"
        },
        {
            "bufferView" : 13,
            "componentType" : 5126,
            "count" : 10,
            "type" : "VEC3"
        },
        {
            "bufferView" : 14,
            "componentType" : 5126,
            "count" : 10,
            "type" : "VEC2"
        },
        {
            "bufferView" : 15,
            "componentType" : 5123,
            "count" : 12,
            "type" : "SCALAR"
        }
    ],
    "bufferViews" : [
        {
            "buffer" : 0,
            "byteLength" : 1008,
            "byteOffset" : 0
        },
        {
            "buffer" : 0,
            "byteLength" : 1008,
            "byteOffset" : 1008
        },
        {
            "buffer" : 0,
            "byteLength" : 672,
            "byteOffset" : 2016
        },
        {
            "buffer" : 0,
            "byteLength" : 240,
            "byteOffset" : 2688
        },
        {
            "buffer" : 0,
            "byteLength" : 432,
            "byteOffset" : 2928
        },
        {
            "buffer" : 0,
            "byteLength" : 432,
            "byteOffset" : 3360
        },
        {
            "buffer" : 0,
            "byteLength" : 288,
            "byteOffset" : 3792
        },
        {
            "buffer" : 0,
            "byteLength" : 120,
            "byteOffset" : 4080
        },
        {
            "buffer" : 0,
            "byteLength" : 984,
            "byteOffset" : 4200
        },
        {
            "buffer" : 0,
            "byteLength" : 984,
            "byteOffset" : 5184
        },
        {
            "buffer" : 0,
            "byteLength" : 656,
            "byteOffset" : 6168
        },
        {
            "buffer" : 0,
            "byteLength" : 216,
            "byteOffset" : 6824
        },
        {
            "buffer" : 0,
            "byteLength" : 120,
            "byteOffset" : 7040
        },
        {
            "buffer" : 0,
            "byteLength" : 120,
            "byteOffset" : 7160
        },
        {
            "buffer" : 0,
            "byteLength" : 80,
            "byteOffset" : 7280
        },
        {
            "buffer" : 0,
            "byteLength" : 24,
            "byteOffset" : 7360
        }
    ],
    "buffers" : [
        {
            "byteLength" : 7384,
            "uri" : "data:application/octet-stream;base64,"
        }
    ]
}
