<svg id="Layer_1" data-name="Layer 1" xmlns="http://www.w3.org/2000/svg" xmlns:xlink="http://www.w3.org/1999/xlink" viewBox="0 0 3600 2000"><defs><style>.cls-1{fill:#fff;}.cls-2{fill:url(#linear-gradient);}.cls-3{fill:url(#linear-gradient-2);}.cls-4{fill:url(#linear-gradient-3);}.cls-5{fill:url(#linear-gradient-4);}.cls-6{fill:#fce279;}.cls-7{fill:#ff870f;}.cls-8{fill:#ff7f00;}.cls-9{fill:#fbd53d;}.cls-10{fill:#ea7a7b;}.cls-11{fill:#da1416;}.cls-12{fill:#e34d4e;}.cls-13{fill:#efecea;}.cls-14{fill:#fbd84d;}.cls-15{fill:#fcdd60;}.cls-16{fill:#ffdebd;}.cls-17{fill:#d70002;}.cls-18{fill:#d90a0c;}.cls-19{fill:#e55c5d;}</style><linearGradient id="linear-gradient" x1="3383.75" y1="1080" x2="3383.75" y2="546.1" gradientTransform="translate(0 920)" gradientUnits="userSpaceOnUse"><stop offset="0" stop-color="#ffe4c9"/><stop offset="0.25" stop-color="#ffebd7"/><stop offset="0.55" stop-color="#fff0e0"/><stop offset="1" stop-color="#fff1e3"/></linearGradient><linearGradient id="linear-gradient-2" x1="525.2" x2="525.2" y2="671.6" xlink:href="#linear-gradient"/><linearGradient id="linear-gradient-3" x1="2316.6" y1="-920" x2="2316.6" y2="-23.88" gradientTransform="translate(0 920)" gradientUnits="userSpaceOnUse"><stop offset="0" stop-color="#fbd53d"/><stop offset="0.04" stop-color="#fbd640"/><stop offset="0.43" stop-color="#fcdc5f"/><stop offset="0.77" stop-color="#fce172"/><stop offset="1" stop-color="#fce279"/></linearGradient><linearGradient id="linear-gradient-4" x1="1170.45" y1="-486.52" x2="1170.45" y2="-920" gradientTransform="translate(0 920)" gradientUnits="userSpaceOnUse"><stop offset="0" stop-color="#e34d4e"/><stop offset="1" stop-color="#d70002"/></linearGradient></defs><title>3Artboard 111</title><g id="_ÎÓÈ_1" data-name=" ÎÓÈ 1"><rect class="cls-1" width="3600" height="2000"/><path class="cls-2" d="M3600,1466.1s-432.5,76.2-432.5,533.9h432Z"/><path class="cls-3" d="M0,1591.6V2000H1050.4S917.8,1591.6,0,1591.6Z"/><path class="cls-4" d="M3600,0V770.3S1609.4,1356,1033.2,0Z"/><path class="cls-5" d="M0,343.5s734.3,239.1,1345-62.2S2340.9.3,2340.9.3L0,0Z"/><rect class="cls-6" x="2228.7" y="835.5" width="30.1" height="11.7"/><rect class="cls-7" x="2748.3" y="1005.2" width="667" height="622.2"/><rect class="cls-8" x="2769.2" y="1024.4" width="625.2" height="60.9"/><rect class="cls-8" x="2769.2" y="1145.3" width="625.2" height="60.9"/><rect class="cls-7" x="2769.2" y="1084.9" width="625.2" height="60.9"/><rect class="cls-8" x="2769.2" y="1266.2" width="625.2" height="60.9"/><rect class="cls-7" x="2769.2" y="1205.7" width="625.2" height="60.9"/><rect class="cls-8" x="2769.2" y="1385.8" width="625.2" height="60.9"/><rect class="cls-7" x="2769.2" y="1325.3" width="625.2" height="60.9"/><rect class="cls-7" x="2769.2" y="1445.6" width="625.2" height="60.9"/><rect class="cls-8" x="2769.2" y="1506.6" width="625.2" height="60.9"/><rect class="cls-7" x="2769.2" y="1566.5" width="625.2" height="60.9"/><rect class="cls-7" x="2748.3" y="845.4" width="667" height="115.5"/><path class="cls-9" d="M3151.6,1651.7h86.3a20.1,20.1,0,0,1,20.1,20.1v77.8a20.1,20.1,0,0,1-20.1,20.1h-86.3a20.1,20.1,0,0,1-20.1-20.1v-77.8A20.1,20.1,0,0,1,3151.6,1651.7Z"/><path class="cls-10" d="M3002.9,1476.3s-8.1.4-9.7-.3-6.2-3.3-5.5-6.3c.4-1.9,3.8,1.1,5.1.6s-2.8-.9-3-1.7,3.4-1.1,4.7-1.3,5.1,2.8,8.1,3.6S3002.9,1476.3,3002.9,1476.3Z"/><path class="cls-11" d="M3108.5,1467.5s-11.2,12.7-24.8,14.5-33.7,5.9-39.9,5.9-41.4-10.9-41.4-10.9-.7-1.1.1-3.6a6.12,6.12,0,0,1,2.5-3.4s24.1.6,35.4,2.2c4.7.7,36.6-18.4,41.6-29.8C3083.8,1437.8,3108.5,1467.5,3108.5,1467.5Z"/><rect class="cls-11" x="2556.2" y="1579.3" width="223.1" height="183.9"/><rect class="cls-12" x="2444.6" y="1579.3" width="223.1" height="183.9"/><polygon class="cls-12" points="2779.1 1716.6 2743.8 1716.6 2746.9 1706.6 2743.8 1699.5 2779.1 1699.5 2779.1 1716.6"/><polygon class="cls-10" points="2667.7 1636.2 2632.4 1636.2 2635.5 1626.3 2632.4 1619.2 2667.7 1619.2 2667.7 1636.2"/><polygon class="cls-12" points="2667.7 1619.2 2703.1 1619.2 2699.9 1629.1 2703.1 1636.2 2667.7 1636.2 2667.7 1619.2"/><polygon class="cls-10" points="2444.6 1718.6 2480 1718.6 2476.9 1728.5 2480 1735.6 2444.6 1735.6 2444.6 1718.6"/><rect class="cls-13" x="2459.2" y="1591.7" width="64.2" height="25"/><rect class="cls-9" x="2532.1" y="1395.5" width="223.1" height="183.9"/><rect class="cls-14" x="2420.6" y="1395.5" width="223.1" height="183.9"/><polygon class="cls-15" points="2755.1 1532.8 2719.7 1532.8 2722.8 1522.8 2719.7 1515.7 2755.1 1515.7 2755.1 1532.8"/><polygon class="cls-6" points="2643.7 1452.4 2608.3 1452.4 2611.4 1442.5 2608.3 1435.4 2643.7 1435.4 2643.7 1452.4"/><polygon class="cls-15" points="2643.7 1435.4 2679 1435.4 2675.9 1445.3 2679 1452.4 2643.7 1452.4 2643.7 1435.4"/><polygon class="cls-6" points="2420.6 1534.8 2455.9 1534.8 2452.8 1544.7 2455.9 1551.8 2420.6 1551.8 2420.6 1534.8"/><rect class="cls-6" x="2435.2" y="1408" width="64.2" height="25"/><rect class="cls-16" x="2818" y="1308.3" width="59.2" height="467.1"/><path class="cls-9" d="M3045.4,1586.4h148.3a21,21,0,0,1,20.9,20.9v36a21,21,0,0,1-20.9,20.9H3045.4a21,21,0,0,1-20.9-20.9v-36A20.89,20.89,0,0,1,3045.4,1586.4Z"/><polygon class="cls-17" points="2896.8 1724.6 3137.7 1734.3 3137.7 1634.9 2892.8 1638.9 2896.8 1724.6"/><circle class="cls-18" cx="2909.3" cy="1746.8" r="74.6"/><circle class="cls-7" cx="2909.2" cy="1746.7" r="43"/><circle class="cls-18" cx="3243" cy="1762.6" r="58.8"/><path class="cls-7" d="M3209.1,1762.6a33.9,33.9,0,1,1,33.9,33.9h0a34,34,0,0,1-33.9-33.9Z"/><path class="cls-12" d="M3200.4,1571v44.4h-62.1L2989.8,1713v72.6h146.9a27.8,27.8,0,0,0,27.8-27.8h0v-16.4a54.18,54.18,0,0,1,23.3-44.5h0a48.75,48.75,0,0,1,27.9-8.7h46.9a23,23,0,0,0,23-23h0v-69.6A24.58,24.58,0,0,0,3261,1571Z"/><path class="cls-16" d="M2897.6,1662.7l-20.4-2.2,114.5-271.4a95.55,95.55,0,0,1,88.1-58.5h96.1a43,43,0,0,1,42.9,43v242h-19.5v-242a23.43,23.43,0,0,0-23.4-23.4h-96.1a76,76,0,0,0-70.1,46.5Z"/><path class="cls-16" d="M2995.6,1790.9a5.34,5.34,0,0,1-5.3-5.3V1731a68.22,68.22,0,0,0-68.2-68.2h-.6c-.4,0-42.2-4.5-74.2,20.4a5.34,5.34,0,0,1-6.6-8.4h0c34.3-26.7,77.1-23.1,81.7-22.6A79,79,0,0,1,3001,1731v54.6A5.29,5.29,0,0,1,2995.6,1790.9Z"/><rect class="cls-16" x="2427.2" y="1761.1" width="390.8" height="14.3"/><rect class="cls-16" x="2804.7" y="1608.3" width="13.3" height="167"/><path class="cls-18" d="M3161.3,1497l-7.1,89.4H3043.3s-5.9-25,12.5-26.1,62.5-7.7,62.5-7.7-2.2-55.5,31.8-64.8a8.89,8.89,0,0,1,10.9,6.2A15.26,15.26,0,0,1,3161.3,1497Z"/><path class="cls-10" d="M3100.3,1436.6s-11.4,6.9-23.7,5c0,0-2.4-.6-1.2-3.5-.4-1.3-.8-2.5-1.1-3.8a42.86,42.86,0,0,1-1.4-6.2l7-7.3,6.6-7C3088.3,1430.4,3100.3,1436.6,3100.3,1436.6Z"/><path class="cls-19" d="M3087.6,1420s-3.8,10.2-13.3,14.2c-1.1-4-1.8-8.1-1.8-8.1l7.4-5.5Z"/><path class="cls-10" d="M3065,1427.7s21.7,2.7,23.2-10.6,5.4-22-8.4-24.3-17.1,2.5-18.7,6.8S3059.4,1426.6,3065,1427.7Z"/><path class="cls-11" d="M3095.1,1390.6a2.58,2.58,0,0,1,1.6-.5,4.14,4.14,0,0,0-1.9-.5c-.3-1.4-1.1-3.8-3.5-4.3a3.12,3.12,0,0,1,1.6,2.1c-2.9-2.8-8.9-4.6-25.4-2.7-21.7,2.5-14,16.2-11.1,17.8s9.8-3.3,15.1-3,6.6,7.8,8.4,8.8,1.1-.8,3.4-2,2.8,2.8,2.1,5.4,2.9,5.9,2.9,5.9l3.2-3.7c3.2-3.7,5.8-19.1,4.1-22.3A9.29,9.29,0,0,0,3095.1,1390.6Z"/><path class="cls-15" d="M3120.7,1519.7s-98.9,4.4-112.4,14.2-37.1,92.4-37.1,92.4,4.8,4.2,19,0c0,0,20-25.5,27.6-42.9,6.8-15.5,9.2-23.3,12.1-22.5,6.2,1.7,69.6,3.9,88.4-8.2C3130.3,1544.8,3119.1,1519.7,3120.7,1519.7Z"/><path class="cls-12" d="M3100.3,1434.6s12.7,10.4,16.7,41.6,8.5,58.6,6,59.7c-17.3,7.8-64-.2-62.8-18.7s5.4-73.5,16.4-78.3S3100.3,1434.6,3100.3,1434.6Z"/><path class="cls-16" d="M3010,1520.4h0a4,4,0,0,1-5.3-2.2l-20.6-49.2a4,4,0,0,1,2.2-5.3h0a4,4,0,0,1,5.3,2.2l20.5,49.2A4,4,0,0,1,3010,1520.4Z"/><path class="cls-10" d="M3008.7,1492.7s-7.8,2.1-9.6,1.8-6.7-1.9-6.7-5c0-1.9,3.9.3,5.1-.6s-2.9-.3-3.3-1,3.1-1.8,4.3-2.3,5.6,1.6,8.7,1.8S3008.7,1492.7,3008.7,1492.7Z"/><path class="cls-12" d="M3110,1461.3s-8.2,14.8-21.1,19.5-31.7,13-37.7,14.4-42.8-1.7-42.8-1.7-.9-1-.7-3.6a6,6,0,0,1,1.7-3.8s23.7-4.6,35-5.5c4.7-.4,31.8-25.8,34.2-38.1C3079.5,1437.7,3110,1461.3,3110,1461.3Z"/><path class="cls-15" d="M2988.5,1623.5s1.1,12.9-1.6,14.3l-35-.1s0-4,5.6-4.9,15.5-4.2,17.1-11.5S2988.5,1623.5,2988.5,1623.5Z"/><path class="cls-16" d="M2969.7,1485.6h15.9a9.81,9.81,0,0,1,9.2,6.5l4.6,12.8a9.65,9.65,0,0,1-.6,7.8l-2.6,5a39.24,39.24,0,0,1-31.9,20.8l-19.4,1.4,15.5-47.5A9.88,9.88,0,0,1,2969.7,1485.6Z"/><rect class="cls-13" x="1723.7" y="1520.5" width="27" height="10.5"/><path class="cls-1" d="M1778.5,946.7c5.8,0,10.6.7,14.4,2.2a26.5,26.5,0,0,1,9.2,5.6"/></g></svg>