<svg xmlns="http://www.w3.org/2000/svg" xmlns:xlink="http://www.w3.org/1999/xlink" viewBox="0 0 8000 4000"><defs><style>.cls-1{fill:url(#linear-gradient);}.cls-2{fill:url(#linear-gradient-2);}</style><linearGradient id="linear-gradient" x1="4000" y1="3968.66" x2="4000" y2="9.2" gradientUnits="userSpaceOnUse"><stop offset="0" stop-color="#fff"></stop><stop offset="0.1" stop-color="#ebeff1"></stop><stop offset="0.22" stop-color="#d8e0e4"></stop><stop offset="0.35" stop-color="#cdd7dd"></stop><stop offset="0.49" stop-color="#c9d4da"></stop><stop offset="0.62" stop-color="#cdd8dd"></stop><stop offset="0.77" stop-color="#dbe2e6"></stop><stop offset="0.92" stop-color="#f0f3f5"></stop><stop offset="1" stop-color="#fff"></stop></linearGradient><linearGradient id="linear-gradient-2" x1="4000" y1="3803.44" x2="4000" y2="2328.46" gradientUnits="userSpaceOnUse"><stop offset="0" stop-color="#dbe3e6"></stop><stop offset="1" stop-color="#b6c4ce"></stop></linearGradient></defs><g id="Layer_2" data-name="Layer 2"><g id="Layer_1-2" data-name="Layer 1"><rect class="cls-1" width="8000" height="4000"></rect><polygon class="cls-2" points="0 1752.07 3.77 1749.78 0 1226.77 282.16 1149.25 480.45 1201.65 480.45 1602.48 616.65 1620.89 616.65 1806.44 638.05 1806.44 638.05 1160.58 739.23 1143.58 1083.61 1174.74 1083.61 1836.18 1136.14 1819.19 1136.14 1562.83 1285.96 1489.17 1455.23 1527.42 1455.23 1802.19 1525.28 1802.19 1525.28 1700.21 1571.97 1700.21 1571.97 1636.47 1640.07 1608.15 1640.07 1299.38 1846.31 1190.32 2097.3 1279.55 2097.3 1689.59 2147.89 1689.59 2147.89 1775.28 2258.79 1775.28 2258.79 1414.11 2439.74 1395.69 2788.01 1421.19 2788.01 1500.51 2858.06 1500.51 2858.06 1848.93 2925.7 1848.93 2925.7 1501.92 3390.72 1501.92 3390.72 1834.77 3460.76 1785.19 3563.88 1785.19 3563.88 1701.63 3715.64 1673.3 3715.64 1385.78 3929.67 1339.04 4114.51 1358.87 4114.51 1813.52 4159.26 1782.36 4235.14 1782.36 4235.14 1510.42 4359.66 1419.77 4359.66 1358.87 4412.19 1337.62 4513.37 1364.53 4513.37 1456.6 4698.21 1537.33 4698.21 1729.95 4723.5 1729.95 4723.5 1418.36 4776.03 1395.69 4776.03 1358.87 4834.4 1341.87 4834.4 1251.22 4966.71 1217.23 5069.83 1261.14 5069.83 1370.2 5122.36 1385.78 5122.36 1763.95 5145.71 1749.78 5145.71 1225.73 5424.1 1149.25 5622.4 1201.65 5622.4 1602.48 5758.59 1620.89 5758.59 1806.44 5780 1806.44 5780 1355.73 5881.17 1338.73 6225.55 1369.89 6225.55 1836.18 6278.09 1819.19 6278.09 1562.83 6427.9 1489.17 6597.18 1527.42 6597.18 1802.19 6667.22 1802.19 6667.22 1700.21 6713.91 1700.21 6713.91 1636.47 6782.01 1608.15 6782.01 1299.38 6988.25 1190.32 7239.24 1279.55 7239.24 1689.59 7289.83 1689.59 7289.83 1775.28 7400.73 1775.28 7400.73 1414.11 7581.68 1395.69 7929.96 1421.19 7929.96 1500.51 8000 1500.51 8000 4000 0 4000 0 1752.07"></polygon></g></g></svg>