<svg xmlns="http://www.w3.org/2000/svg" viewBox="0 0 481.2 51.49"><defs><style>.cls-1{fill:#969696;}</style></defs><g id="Layer_2" data-name="Layer 2"><g id="Layer_1-2" data-name="Layer 1"><g id="Layer_2-2" data-name="Layer 2"><g id="Layer_2-2-2" data-name="Layer 2-2"><path class="cls-1" d="M35.56.71,28.29,47.39H9.52a2.37,2.37,0,0,1-1.47-3A2.41,2.41,0,0,1,9.34,43h7.1a2.16,2.16,0,0,0,.19-4.1H13.14a2.15,2.15,0,0,1,0-4.12H20a2.4,2.4,0,0,0-.28-4.48H10.13a2.15,2.15,0,0,1,0-4.14H23.86a2.22,2.22,0,0,0,0-4.38H13.14a2.26,2.26,0,0,1-.29-4.09h7.41a2.28,2.28,0,0,0,0-4.39h-4.9a2.13,2.13,0,0,1,0-4.11H25.77a2.24,2.24,0,0,0,0-4.39H19.91c-2.82-.45-2.7-3.71,0-4.11Z"></path><rect class="cls-1" y="43.19" width="6.64" height="4.07" rx="1.95"></rect><ellipse class="cls-1" cx="7.83" cy="19.77" rx="2.4" ry="2.09"></ellipse><path class="cls-1" d="M66,48.09H51.32l9.65-36H44.76l-9.64,36H20.44L33.19.38H78.81Z"></path><path class="cls-1" d="M88.58.38h24.5q8,0,11,3.81T125.16,15a20.15,20.15,0,0,1-7.39,11.26q-5.43,4.11-14.33,4.11H95.37l-4.75,17.7H75.79Zm9.36,20.34h3.61q4.26,0,6.38-1.48a6.54,6.54,0,0,0,2.74-3.79,4.42,4.42,0,0,0-.47-3.81q-1.08-1.56-5.21-1.56h-4.2Z"></path><path class="cls-1" d="M155.44,40.21H138.7l-4.44,7.88h-15L149.92.38H166l5.15,47.71H155.71Zm-.29-10.31-.71-17.15L144.63,29.9Z"></path><path class="cls-1" d="M185.27.38h44.81l-3.16,11.78h-15l-9.63,35.93H187.52l9.62-35.93h-15Z"></path><path class="cls-1" d="M267.35,48.09H250.74l-2.45-12.32c-.58-2.91-1.15-4.74-1.71-5.46a3.37,3.37,0,0,0-2.85-1.1l-5.06,18.88H224L236.75.38h14.69L246.53,18.7a5.22,5.22,0,0,0,3.36-1.36q1.41-1.28,5.3-7.29a31.07,31.07,0,0,1,5.07-6.4A13.62,13.62,0,0,1,266.51.87,63.62,63.62,0,0,1,278.68,0L276,10.11h-.75a10.94,10.94,0,0,0-6,1.43A14.9,14.9,0,0,0,265,16.18,22.57,22.57,0,0,1,261.18,21a13,13,0,0,1-4.37,2.53,9,9,0,0,1,4.63,3.59,25.16,25.16,0,0,1,2.92,8Z"></path><path class="cls-1" d="M304.06,40.21H287.32l-4.43,7.88H267.83L298.55.38h16.08l5.14,47.71H304.34Zm-.3-10.31-.67-17.15-9.8,17.15Z"></path><path class="cls-1" d="M325.85,37.12h11.69l-2.93,11h-11.7Z"></path><path class="cls-1" d="M353.86,31.09h4.58c4.19,0,7.09.74,8.72,2.22s2,3.77,1.19,6.89A9.43,9.43,0,0,1,364,46.06a16.19,16.19,0,0,1-8.53,2H340.78l7.41-27.66h23.25l-1.5,5.6H355.22Zm-3,11.06h4.38c2.68,0,4.27-1,4.79-2.91q.69-2.55-3.33-2.55h-4.38Z"></path><path class="cls-1" d="M398.29,27.22H384.91l-5.59,20.87H370.8l7.41-27.66h21.9Z"></path><path class="cls-1" d="M429.62,3.36l-12.7,46.29.49,1.73-19.14.11c-2.76-.77-2.5-3.87-.23-4.54H407c2.48-.71,2.73-3.5.23-4.24h-4.41c-2.32-.59-2.78-3.5,0-4.24h8.54c2.22-1,2.33-3.61-.35-4.55H399c-2.57-.67-2.7-3.48,0-4.28h17.22c3.14-.76,3-3.82,0-4.51H402.81c-2-.61-2.65-3.13-.36-4.22h9.29c2.86-.82,2.73-3.73,0-4.53h-6.17c-2.6-.61-2.63-3.48,0-4.24h13.06c2.81-.54,3.12-3.78,0-4.53H411.3c-3.54-.47-3.39-3.83,0-4.25Z"></path><rect class="cls-1" x="386.24" y="47.18" width="8.33" height="4.2" rx="1.95"></rect><path class="cls-1" d="M469.31,51.33H412l11.42-45H481.2Zm-48.3-7h42.9l8.19-31H428.87Z"></path><polygon class="cls-1" points="421.4 3.37 477.33 3.37 481.17 6.22 423.39 6.72 421.4 3.37"></polygon></g></g></g></g></svg>